STARTFONT 2.1
COMMENT CVS:Version $Id 1.6
COMMENT 
COMMENT (C) CENA/J.L. Vinot, 2002, CENA (Centre d'Etudes de la Navigation Aťrienne)
COMMENT Version $Id$
COMMENT Tag $Name$
COMMENT This software is free software; you can redistribute it and/or modify it 
COMMENT under the terms of the GNU Lesser General Public License as published by the Free Software Foundation: 
COMMENT either version 2 of the License, or (at your option) any later version.
COMMENT 
COMMENT This software is distributed in the hope that it will be useful, but WITHOUT ANY WARRANTY; 
COMMENT without even the implied warranty of MERCHANTABILITY or FITNESS FOR A PARTICULAR PURPOSE.  
COMMENT See the GNU Lesser General Public License for more details.
COMMENT 
COMMENT You should have received a copy of the GNU Lesser General Public License along with this software; 
COMMENT if not, write to the Free Software Foundation, Inc., 59 Temple Place - Suite 330, Boston, MA  02111-1307, USA.
COMMENT Please refer to http://www.gnu.org/copyleft/gpl.html
COMMENT 
COMMENT This font has been originally designed by CENA/France for the specific needs of Air Traffic Control. 
COMMENT For example, it must offer good legibility and avoid any confusion between character shapes. 
COMMENT CENA would like to preserve its qualities. If you have any specific need, you can modify this font, 
COMMENT but we would like you to change its name to avoid any confusion between your new font and the original one designed by CENA.
COMMENT Note however, that as implied in the LGPL licence, you must credit CENA for the original work. 
COMMENT Finally, CENA would appreciate it if you send back any enhancement or extension made to the original work. 
COMMENT This statement must be fully included with any further distribution of the font.
COMMENT 
COMMENT to contact us: email to:  pii-contact@cena.fr
COMMENT write to: CENA, 7 avenue Edouard Belin, 31400 Toulouse, France 

STARTCHAR gcid14
ENCODING 20
SWIDTH 600 0
DWIDTH 48 0
BBX 40 8 4 24
BITMAP
FFFFFFFFFF
FFFFFFFFFF
FFFFFFFFFF
FFFFFFFFFF
FFFFFFFFFF
FFFFFFFFFF
FFFFFFFFFF
FFFFFFFFFF
ENDCHAR
STARTCHAR gcid15
ENCODING 21
SWIDTH 650 0
DWIDTH 52 0
BBX 45 45 3 8
BITMAP
0C0000000000
1E0000000000
3F0000000000
7F8000000000
FFC000000000
FFE000000000
7FF000000000
3FF800000000
1FFC00000000
0FFE00000000
07FF00000000
03FF80000000
01FFC0000008
00FFE0000018
007FF0000038
003FF8000078
001FFC0000F8
000FFE0001F8
0007FF0003F8
0003FF8007F8
0001FFC00FF8
0000FFE01FF8
00007FF03FF8
00003FF87FF8
00001FFCFFF8
00000FFFFFF8
000007FFFFF8
000003FFFFF8
000001FFFFF8
000000FFFFF8
0000007FFFF8
0000007FFFF8
000000FFFFF8
000001FFFFF8
000003FFFFF8
000007FFFFF8
00000FFFFFF8
00001FFFFFF8
00003FFFFFF8
00007FFFFFF8
0000FFFFFFF8
0001FFFFFFF8
0003FFFFFFF8
0007FFFFFFF8
000FFFFFFFF8
ENDCHAR
STARTCHAR gcid16
ENCODING 22
SWIDTH 650 0
DWIDTH 52 0
BBX 45 45 3 -1
BITMAP
000FFFFFFFF8
0007FFFFFFF8
0003FFFFFFF8
0001FFFFFFF8
0000FFFFFFF8
00007FFFFFF8
00003FFFFFF8
00001FFFFFF8
00000FFFFFF8
000007FFFFF8
000003FFFFF8
000001FFFFF8
000000FFFFF8
0000007FFFF8
0000007FFFF8
000000FFFFF8
000001FFFFF8
000003FFFFF8
000007FFFFF8
00000FFFFFF8
00001FFCFFF8
00003FF87FF8
00007FF03FF8
0000FFE01FF8
0001FFC00FF8
0003FF8007F8
0007FF0003F8
000FFE0001F8
001FFC0000F8
003FF8000078
007FF0000038
00FFE0000018
01FFC0000008
03FF80000000
07FF00000000
0FFE00000000
1FFC00000000
3FF800000000
7FF000000000
FFE000000000
FFC000000000
7F8000000000
3F0000000000
1E0000000000
0C0000000000
ENDCHAR
STARTCHAR space
ENCODING 32
SWIDTH 650 0
DWIDTH 52 0
BBX 0 0 0 0
BITMAP
ENDCHAR
STARTCHAR exclam
ENCODING 33
SWIDTH 300 0
DWIDTH 24 0
BBX 8 56 8 0
BITMAP
FF
FF
FF
FF
FF
FF
FF
FF
FF
FF
FF
FF
FF
FF
FF
FF
FF
FF
FF
FF
FF
FF
FF
FF
FF
FF
FF
FF
FF
FF
FF
FF
FF
FF
FF
FF
FF
FF
FF
FF
00
00
00
00
00
00
00
00
FF
FF
FF
FF
FF
FF
FF
FF
ENDCHAR
STARTCHAR quotedbl
ENCODING 34
SWIDTH 400 0
DWIDTH 32 0
BBX 20 16 8 40
BITMAP
FF0FF0
FF0FF0
FF0FF0
FF0FF0
FF0FF0
FF0FF0
FF0FF0
FF0FF0
FF0FF0
7E07E0
7E07E0
7E07E0
7E07E0
7E07E0
7E07E0
7E07E0
ENDCHAR
STARTCHAR numbersign
ENCODING 35
SWIDTH 625 0
DWIDTH 50 0
BBX 48 44 3 4
BITMAP
00003F803F00
00003F803F00
00003F803F00
00003F803F00
00007F007E00
00007F007E00
00007F007E00
00007F007E00
00FFFFFFFFFF
00FFFFFFFFFF
01FFFFFFFFFE
01FFFFFFFFFE
03FFFFFFFFFC
03FFFFFFFFFC
07FFFFFFFFF8
0001F800FC00
0003F801F800
0003F801F800
0003F801F800
0003F801F800
0007F003F000
0007F003F000
0007F003F000
0007F003F000
000FE007E000
000FE007E000
000FE007E000
000FE007E000
1FFFFFFFFFF0
1FFFFFFFFFF0
3FFFFFFFFFE0
3FFFFFFFFFE0
7FFFFFFFFFC0
7FFFFFFFFFC0
FFFFFFFFFF80
003F801FC000
007F003F8000
007F003F8000
007F003F8000
007F003F8000
00FE007F0000
00FE007F0000
00FE007F0000
00FE007F0000
ENDCHAR
STARTCHAR dollar
ENCODING 36
SWIDTH 600 0
DWIDTH 48 0
BBX 38 72 5 -8
BITMAP
0001FE0000
0001FE0000
0001FE0000
0001FE0000
0001FE0000
0001FE0000
0001FE0000
0003FF8000
001FFFF000
007FFFFC00
01FFFFFE00
03FFFFFF80
07FFFFFFC0
0FFFFFFFE0
1FFFFFFFE0
1FF9FFFFE0
3FE1FE7FE0
3FC1FE1FE0
7F81FE07E0
7F81FE03E0
7F01FE01E0
FF01FE00E0
FF01FE0060
FF01FE0020
FF01FE0000
FF81FE0000
FFC1FE0000
FFF1FE0000
7FFDFE0000
7FFFFE0000
3FFFFE0000
3FFFFE0000
1FFFFE0000
0FFFFF8000
07FFFFE000
01FFFFF800
007FFFFE00
001FFFFF00
0007FFFFC0
0001FFFFE0
0001FFFFF0
0001FFFFF0
0001FFFFF8
0001FFFFF8
0001FE7FFC
0001FE1FFC
0001FE0FFC
0001FE07FC
4001FE03FC
6001FE03FC
7001FE03FC
7801FE03F8
7C01FE07F8
7F01FE07F8
7F81FE0FF0
7FE1FE1FF0
7FF9FE7FE0
7FFFFFFFE0
7FFFFFFFC0
3FFFFFFF80
1FFFFFFF00
07FFFFFE00
03FFFFF800
00FFFFE000
001FFF0000
0001FE0000
0001FE0000
0001FE0000
0001FE0000
0001FE0000
0001FE0000
0001FE0000
ENDCHAR
STARTCHAR percent
ENCODING 37
SWIDTH 750 0
DWIDTH 60 0
BBX 52 56 4 0
BITMAP
01FC00000FF000
07FF00000FF000
1FFFC0001FE000
3FDFE0001FE000
3F07E0003FC000
7F07F0003FC000
7E03F0007F8000
FE03F8007F8000
FE03F800FF0000
FE03F800FF0000
FE03F801FE0000
FE03F801FE0000
FE03F803FC0000
FE03F803FC0000
FE03F807F80000
FE03F807F80000
7E03F00FF00000
7F07F00FF00000
3F07E01FE00000
3FDFE01FE00000
1FFFC03FC00000
07FF003FC00000
01FC007F800000
0000007F800000
000000FF000000
000000FF000000
000001FE000000
000001FE000000
000003FC000000
000003FC000000
000007F8000000
000007F8000000
00000FF0000000
00000FF003F800
00001FE00FFE00
00001FE03FFF80
00003FC07FBFC0
00003FC07E0FC0
00007F80FE0FE0
00007F80FC07E0
0000FF01FC07F0
0000FF01FC07F0
0001FE01FC07F0
0001FE01FC07F0
0003FC01FC07F0
0003FC01FC07F0
0007F801FC07F0
0007F801FC07F0
000FF001FC07F0
000FF000FC07E0
001FE000FE0FE0
001FE0007E0FC0
003FC0007FBFC0
003FC0003FFF80
007F80000FFE00
007F800003F800
ENDCHAR
STARTCHAR ampersand
ENCODING 38
SWIDTH 750 0
DWIDTH 60 0
BBX 52 57 8 -1
BITMAP
0003FE00000000
001FFFC0000000
007FFFF0000000
01FFFFF8000000
03FFFFFC000000
07FFFFFE000000
07FE07FE000000
0FF801FF000000
0FF000FF000000
1FE0007F000000
1FE0007F000000
1FE0007F000000
1FE0007F000000
1FE000FF000000
1FF001FE000000
1FF003FE000000
1FF807FC000000
0FFC0FF8000000
0FFE1FF0000000
07FF3FE0000000
07FFFFC0000000
03FFFF80000000
01FFFF00000000
00FFFE00000000
007FFC00000000
007FFC00000000
00FFFE00000000
01FFFF00000000
03FFFF80000000
07FFFFC0000000
0FFFFFE0000000
1FF9FFF0000000
1FF0FFF8000000
3FE07FFC000000
3FC03FFE00C000
7F801FFF01E000
7F800FFF83F000
7F0007FFC7F800
FF0003FFEFFC00
FF0001FFFFFC00
FF0000FFFFF800
FF00007FFFF000
FF00003FFFE000
FF80001FFFC000
FF80000FFF8000
FFC0000FFFC000
FFE0001FFFE000
7FF0007FFFF000
7FFC01FFFFF800
3FFFFFFFFFFC00
3FFFFFFFDFFE00
1FFFFFFF8FFF00
0FFFFFFE07FF80
07FFFFF803FFC0
01FFFFF001FFE0
007FFF8000FFF0
000FFC00000000
ENDCHAR
STARTCHAR quotesingle
ENCODING 39
SWIDTH 250 0
DWIDTH 20 0
BBX 8 16 8 40
BITMAP
FF
FF
FF
FF
FF
FF
FF
FF
FF
7E
7E
7E
7E
7E
7E
7E
ENDCHAR
STARTCHAR parenleft
ENCODING 40
SWIDTH 450 0
DWIDTH 36 0
BBX 22 72 7 -12
BITMAP
0007FC
000FF8
000FF0
001FE0
003FC0
007F80
007F80
00FF00
01FE00
01FE00
03FC00
03F800
07F800
07F000
0FF000
0FE000
1FE000
1FE000
1FC000
3FC000
3F8000
3F8000
3F8000
7F8000
7F0000
7F0000
7F0000
7F0000
FF0000
FE0000
FE0000
FE0000
FE0000
FE0000
FE0000
FE0000
FE0000
FE0000
FE0000
FE0000
FE0000
FE0000
FE0000
FE0000
7F0000
7F0000
7F0000
7F0000
7F8000
3F8000
3F8000
3F8000
3FC000
1FC000
1FE000
1FE000
0FE000
0FF000
07F000
07F800
03F800
03FC00
01FE00
01FE00
00FF00
007F80
007F80
003FC0
001FE0
000FF0
000FF8
0007FC
ENDCHAR
STARTCHAR parenright
ENCODING 41
SWIDTH 450 0
DWIDTH 36 0
BBX 22 72 2 -12
BITMAP
FF8000
7FC000
3FC000
1FE000
0FF000
07F800
07F800
03FC00
01FE00
01FE00
00FF00
007F00
007F80
003F80
003FC0
001FC0
001FE0
001FE0
000FE0
000FF0
0007F0
0007F0
0007F0
0007F8
0003F8
0003F8
0003F8
0003F8
0003FC
0001FC
0001FC
0001FC
0001FC
0001FC
0001FC
0001FC
0001FC
0001FC
0001FC
0001FC
0001FC
0001FC
0001FC
0001FC
0003F8
0003F8
0003F8
0003F8
0007F8
0007F0
0007F0
0007F0
000FF0
000FE0
001FE0
001FE0
001FC0
003FC0
003F80
007F80
007F00
00FF00
01FE00
01FE00
03FC00
07F800
07F800
0FF000
1FE000
3FC000
7FC000
FF8000
ENDCHAR
STARTCHAR asterisk
ENCODING 42
SWIDTH 500 0
DWIDTH 40 0
BBX 33 30 3 27
BITMAP
0007F00000
0007F00000
0007F00000
1007F00400
3C07F01E00
7E07F03F00
FF87F0FF80
FFC7F1FF80
3FF7F7FE00
1FFFFFFC00
07FFFFF000
03FFFFE000
00FFFF8000
007FFF0000
001FFC0000
001FFC0000
007FFF0000
00FFFF8000
03FFFFE000
07FFFFF000
1FFFFFFC00
3FF7F7FE00
FFC7F1FF80
FF87F0FF80
7E07F03F00
3C07F01E00
1007F00400
0007F00000
0007F00000
0007F00000
ENDCHAR
STARTCHAR plus
ENCODING 43
SWIDTH 600 0
DWIDTH 48 0
BBX 40 40 4 0
BITMAP
0000FF0000
0000FF0000
0000FF0000
0000FF0000
0000FF0000
0000FF0000
0000FF0000
0000FF0000
0000FF0000
0000FF0000
0000FF0000
0000FF0000
0000FF0000
0000FF0000
0000FF0000
0000FF0000
FFFFFFFFFF
FFFFFFFFFF
FFFFFFFFFF
FFFFFFFFFF
FFFFFFFFFF
FFFFFFFFFF
FFFFFFFFFF
FFFFFFFFFF
0000FF0000
0000FF0000
0000FF0000
0000FF0000
0000FF0000
0000FF0000
0000FF0000
0000FF0000
0000FF0000
0000FF0000
0000FF0000
0000FF0000
0000FF0000
0000FF0000
0000FF0000
0000FF0000
ENDCHAR
STARTCHAR comma
ENCODING 44
SWIDTH 400 0
DWIDTH 32 0
BBX 16 24 6 -12
BITMAP
0FFF
0FFF
0FFE
0FFE
1FFC
1FFC
1FF8
1FF8
1FF0
3FF0
3FE0
3FE0
3FC0
3FC0
7F80
7F80
7F00
7F00
7E00
FE00
FC00
FC00
F800
F800
ENDCHAR
STARTCHAR hyphen
ENCODING 45
SWIDTH 550 0
DWIDTH 44 0
BBX 28 8 8 16
BITMAP
FFFFFFF0
FFFFFFF0
FFFFFFF0
FFFFFFF0
FFFFFFF0
FFFFFFF0
FFFFFFF0
FFFFFFF0
ENDCHAR
STARTCHAR period
ENCODING 46
SWIDTH 400 0
DWIDTH 32 0
BBX 13 12 9 0
BITMAP
0F80
3FE0
7FF0
7FF0
FFF8
FFF8
FFF8
FFF8
7FF0
7FF0
3FE0
0F80
ENDCHAR
STARTCHAR slash
ENCODING 47
SWIDTH 512 0
DWIDTH 41 0
BBX 41 68 0 -8
BITMAP
000000007F80
000000007F80
00000000FF00
00000000FF00
00000001FE00
00000001FE00
00000003FC00
00000003FC00
00000007F800
00000007F800
0000000FF000
0000000FF000
0000001FE000
0000001FE000
0000003FC000
0000003FC000
0000007F8000
0000007F8000
000000FF0000
000000FF0000
000001FE0000
000001FE0000
000003FC0000
000003FC0000
000007F80000
000007F80000
00000FF00000
00000FF00000
00001FE00000
00001FE00000
00003FC00000
00003FC00000
00007F800000
00007F800000
0000FF000000
0000FF000000
0001FE000000
0001FE000000
0003FC000000
0003FC000000
0007F8000000
0007F8000000
000FF0000000
000FF0000000
001FE0000000
001FE0000000
003FC0000000
003FC0000000
007F80000000
007F80000000
00FF00000000
00FF00000000
01FE00000000
01FE00000000
03FC00000000
03FC00000000
07F800000000
07F800000000
0FF000000000
0FF000000000
1FE000000000
1FE000000000
3FC000000000
3FC000000000
7F8000000000
7F8000000000
FF0000000000
FF0000000000
ENDCHAR
STARTCHAR zero
ENCODING 48
SWIDTH 600 0
DWIDTH 48 0
BBX 43 58 7 -1
BITMAP
00007FC00000
0003FFF80000
000FFFFE0000
003FFFFF8000
007FFFFFC000
00FFFFFFE000
01FFFFFFF000
03FFC07FF800
07FF001FFC00
0FFC0007FE00
0FF80003FE00
1FF00001FF00
1FE00000FF00
3FE00000FF80
3FC000007F80
3FC000007F80
7FC000FE7FC0
7F8001FE3FC0
7F8001FC3FC0
7F8003FC3FC0
FF8003F83FE0
FF0007F81FE0
FF0007F01FE0
FF000FF01FE0
FF000FE01FE0
FF001FE01FE0
FF001FC01FE0
FF003FC01FE0
FF003F801FE0
FF007F801FE0
FF007F001FE0
FF00FF001FE0
FF00FE001FE0
FF01FE001FE0
FF01FC001FE0
FF03FC001FE0
FF03F8001FE0
FF87F8003FE0
7F87F0003FC0
7F8FF0003FC0
7F8FE0003FC0
7FC000007FC0
3FC000007F80
3FC000007F80
3FE00000FF80
1FE00000FF00
1FF00001FF00
0FF80003FE00
0FFC0007FE00
07FF001FFC00
03FFC07FF800
01FFFFFFF000
00FFFFFFE000
007FFFFFC000
003FFFFF8000
000FFFFE0000
0003FFF80000
00007FC00000
ENDCHAR
STARTCHAR one
ENCODING 49
SWIDTH 550 0
DWIDTH 44 0
BBX 29 56 7 0
BITMAP
000001F8
000003F8
000007F8
00000FF8
00001FF8
00003FF8
00007FF8
0000FFF8
0001FFF8
0003FFF8
0007FFF8
000FFFF8
001FFFF8
003FFFF8
007FF7F8
00FFE7F8
01FFC7F8
03FF87F8
07FF07F8
0FFE07F8
1FFC07F8
3FF807F8
7FF007F8
FFE007F8
7FC007F8
3F8007F8
1F0007F8
0E0007F8
040007F8
000007F8
000007F8
000007F8
000007F8
000007F8
000007F8
000007F8
000007F8
000007F8
000007F8
000007F8
000007F8
000007F8
000007F8
000007F8
000007F8
000007F8
000007F8
000007F8
000007F8
000007F8
000007F8
000007F8
000007F8
000007F8
000007F8
000007F8
ENDCHAR
STARTCHAR two
ENCODING 50
SWIDTH 600 0
DWIDTH 48 0
BBX 41 57 7 0
BITMAP
0003FE000000
001FFFC00000
007FFFF00000
01FFFFF80000
03FFFFFE0000
07FFFFFF0000
0FFFFFFF8000
1FFFFFFFC000
3FFE03FFE000
3FF800FFE000
7FE0003FF000
7FC0001FF000
7FC0000FF800
FF80000FF800
FF800007F800
FF800007FC00
FF800003FC00
00000003FC00
00000003FC00
00000003FC00
00000003FC00
00000007FC00
00000007FC00
0000000FF800
0000000FF800
0000001FF800
0000003FF000
0000007FF000
000000FFE000
000001FFE000
000003FFC000
000007FF8000
00000FFF0000
00001FFE0000
00003FFC0000
00007FF80000
0000FFF00000
0001FFE00000
0003FFC00000
0007FF800000
000FFF000000
001FFE000000
003FFC000000
007FF8000000
00FFF0000000
01FFE0000000
03FFC0000000
07FF80000000
0FFF80000000
1FFFFFFFFF80
3FFFFFFFFF80
7FFFFFFFFF80
7FFFFFFFFF80
7FFFFFFFFF80
7FFFFFFFFF80
7FFFFFFFFF80
7FFFFFFFFF80
ENDCHAR
STARTCHAR three
ENCODING 51
SWIDTH 600 0
DWIDTH 48 0
BBX 43 57 3 -1
BITMAP
07FFFFFFFF80
07FFFFFFFF80
07FFFFFFFF80
07FFFFFFFF00
07FFFFFFFE00
07FFFFFFFC00
07FFFFFFF800
07FFFFFFF000
0000001FE000
0000003FC000
0000007F8000
000000FF0000
000001FE0000
000003FC0000
000007F80000
00000FF00000
00001FE00000
00003FC00000
00007F800000
0000FF000000
0001FFE00000
0003FFFC0000
0007FFFF8000
0007FFFFC000
0007FFFFF000
0007FFFFF800
0007FFFFFC00
0007FFFFFE00
0000007FFF00
0000000FFF80
00000003FF80
00000000FFC0
000000007FC0
000000003FC0
000000003FE0
000000001FE0
000000001FE0
000000001FE0
000000001FE0
000000001FE0
000000001FE0
060000001FE0
0F0000003FE0
1F8000003FC0
3FC000007FC0
7FE000007FC0
FFF80001FF80
7FFC0003FF80
3FFF801FFF00
1FFFFFFFFE00
0FFFFFFFFC00
07FFFFFFF800
01FFFFFFF000
00FFFFFFC000
003FFFFF0000
0007FFFC0000
0000FFC00000
ENDCHAR
STARTCHAR four
ENCODING 52
SWIDTH 600 0
DWIDTH 48 0
BBX 46 57 6 -1
BITMAP
000007FC0000
000007FC0000
00000FF80000
00000FF80000
00001FF00000
00001FF00000
00003FE00000
00003FE00000
00007FC00000
00007FC00000
0000FF800000
0000FF800000
0001FF000000
0001FF000000
0003FE000000
0003FE000000
0007FC000000
0007FC000000
000FF8000C00
000FF8003C00
001FF000FC00
001FF003FC00
003FE003FC00
003FE003FC00
007FC003FC00
007FC003FC00
00FF8003FC00
00FF8003FC00
01FF0003FC00
01FF0003FC00
03FE0003FC00
03FE0003FC00
07FC0003FC00
07FC0003FC00
0FF80003FC00
0FF80003FC00
1FFFFFFFFFFC
1FFFFFFFFFFC
3FFFFFFFFFFC
3FFFFFFFFFFC
7FFFFFFFFFFC
7FFFFFFFFFFC
FFFFFFFFFFFC
FFFFFFFFFFFC
00000003FC00
00000003FC00
00000003FC00
00000003FC00
00000003FC00
00000003FC00
00000003FC00
00000003FC00
00000003FC00
00000003FC00
00000003FC00
00000003FC00
00000003FC00
ENDCHAR
STARTCHAR five
ENCODING 53
SWIDTH 600 0
DWIDTH 48 0
BBX 43 57 5 -1
BITMAP
01FFFFFFFC00
01FFFFFFFC00
01FFFFFFF800
01FFFFFFF800
01FFFFFFF000
01FFFFFFF000
01FFFFFFE000
01FFFFFFE000
01FE00000000
01FE00000000
01FE00000000
01FE00000000
01FE00000000
01FE00000000
01FE00000000
01FE00000000
01FE00000000
01FE00000000
01FE00000000
01FE00000000
01FFFF800000
01FFFFF80000
01FFFFFF0000
01FFFFFFC000
01FFFFFFE000
01FFFFFFF800
01FFFFFFFC00
01FFFFFFFE00
0000007FFF00
0000000FFF80
00000003FF80
00000001FFC0
00000000FFC0
000000007FC0
000000003FE0
000000003FE0
000000001FE0
000000001FE0
000000001FE0
000000001FE0
000000001FE0
060000001FE0
0F0000003FE0
1F8000003FC0
3FC000007FC0
7FE000007FC0
FFF80001FF80
7FFC0003FF80
3FFF801FFF00
1FFFFFFFFE00
0FFFFFFFFC00
07FFFFFFF800
01FFFFFFF000
00FFFFFFC000
003FFFFF0000
0007FFFC0000
0000FFC00000
ENDCHAR
STARTCHAR six
ENCODING 54
SWIDTH 600 0
DWIDTH 48 0
BBX 42 57 8 -1
BITMAP
000003FE0000
00000FFC0000
00003FF80000
00007FE00000
0000FFC00000
0001FF800000
0003FF000000
0007FE000000
000FFC000000
001FF8000000
003FF0000000
003FE0000000
007FC0000000
00FF80000000
00FF80000000
01FF00000000
03FE00000000
03FE00000000
07FC00000000
07F800000000
0FF80FF80000
0FF07FFF0000
1FF1FFFFC000
1FE7FFFFF000
1FEFFFFFF800
3FFFFFFFFC00
3FFFFFFFFE00
7FFFFFFFFE00
7FFFE01FFF00
7FFF0003FF00
7FFC0001FF80
FFF00000FF80
FFE000007F80
FFC000007FC0
FF8000003FC0
FF8000003FC0
FF0000003FC0
FF0000003FC0
FF0000003FC0
FF0000003FC0
FF0000007FC0
FF0000007FC0
FF000000FF80
FF800000FF80
7F800001FF80
7FC00003FF00
7FE0000FFF00
3FF8001FFE00
3FFE00FFFE00
1FFFFFFFFC00
0FFFFFFFF800
07FFFFFFF000
03FFFFFFE000
01FFFFFF8000
007FFFFE0000
001FFFF80000
0001FFC00000
ENDCHAR
STARTCHAR seven
ENCODING 55
SWIDTH 600 0
DWIDTH 48 0
BBX 43 56 4 0
BITMAP
FFFFFFFFFFE0
FFFFFFFFFFE0
FFFFFFFFFFC0
FFFFFFFFFF80
FFFFFFFFFF80
FFFFFFFFFF00
FFFFFFFFFE00
FFFFFFFFFE00
00000003FC00
00000007F800
0000000FF800
0000000FF000
0000001FE000
0000003FE000
0000003FC000
0000007F8000
000000FF8000
000000FF0000
000001FF0000
000001FE0000
000003FE0000
000003FC0000
000007FC0000
000007F80000
00000FF80000
00000FF00000
00001FF00000
00001FE00000
00003FE00000
00003FC00000
00007FC00000
00007FC00000
0000FF800000
0000FF800000
0000FF800000
0001FF000000
0001FF000000
0001FF000000
0003FE000000
0003FE000000
0003FE000000
0007FC000000
0007FC000000
0007FC000000
0007FC000000
0007F8000000
000FF8000000
000FF8000000
000FF8000000
000FF8000000
000FF8000000
000FF8000000
000FF8000000
000FF8000000
000FF8000000
000FF8000000
ENDCHAR
STARTCHAR eight
ENCODING 56
SWIDTH 600 0
DWIDTH 48 0
BBX 41 58 9 -1
BITMAP
00007FC00000
0003FFF80000
000FFFFE0000
003FFFFF0000
007FFFFF8000
00FFFFFFC000
01FFFFFFE000
03FFC0FFE000
03FF003FF000
07FC001FF000
07F8000FF800
0FF8000FF800
0FF00007F800
0FF00007F800
0FF00007F800
0FF00007F800
0FF8000FF800
0FF8000FF800
0FFC001FF000
07FF003FF000
07FFC0FFE000
03FFFFFFE000
01FFFFFFC000
00FFFFFF0000
007FFFFE0000
003FFFF80000
007FFFFC0000
01FFFFFF0000
03FFFFFF8000
07FFFFFFE000
0FFFBFFFF000
1FFE07FFF800
3FF801FFFC00
3FF0007FFE00
7FE0001FFE00
7FC0000FFF00
7FC00007FF00
FF800003FF00
FF800001FF80
FF800001FF80
FF800000FF80
FF800000FF80
FF800000FF80
FF800000FF80
FFC00000FF80
7FC00001FF80
7FE00001FF00
7FE00003FF00
3FF80007FE00
3FFC001FFE00
1FFF00FFFC00
0FFFFFFFF800
07FFFFFFF000
03FFFFFFE000
00FFFFFF8000
003FFFFE0000
000FFFF80000
0000FF800000
ENDCHAR
STARTCHAR nine
ENCODING 57
SWIDTH 600 0
DWIDTH 48 0
BBX 42 57 8 0
BITMAP
0000FFE00000
0007FFFE0000
001FFFFF8000
007FFFFFE000
01FFFFFFF000
03FFFFFFF800
07FFFFFFFC00
0FFFFFFFFE00
1FFFC01FFF00
1FFE0007FF00
3FFC0001FF80
3FF00000FF80
7FE000007F80
7FC000007FC0
7FC000003FC0
FF8000003FC0
FF8000003FC0
FF0000003FC0
FF0000003FC0
FF0000003FC0
FF0000003FC0
FF0000007FC0
FF0000007FC0
FF800000FFC0
7F800001FFC0
7FC00003FFC0
7FE0000FFF80
3FF0003FFF80
3FFE01FFFF80
1FFFFFFFFF00
1FFFFFFFFF00
0FFFFFFFFF00
07FFFFFDFE00
03FFFFF9FE00
00FFFFE3FE00
003FFF83FC00
0007FC07FC00
00000007F800
0000000FF800
0000001FF000
0000001FE000
0000003FE000
0000007FC000
0000007FC000
000000FF8000
000001FF0000
000003FE0000
000007FE0000
00000FFC0000
00001FF80000
00003FF00000
00007FE00000
0000FFC00000
0001FF800000
0007FF000000
000FFE000000
001FF8000000
ENDCHAR
STARTCHAR colon
ENCODING 58
SWIDTH 400 0
DWIDTH 32 0
BBX 13 40 9 0
BITMAP
0F80
3FE0
7FF0
7FF0
FFF8
FFF8
FFF8
FFF8
7FF0
7FF0
3FE0
0F80
0000
0000
0000
0000
0000
0000
0000
0000
0000
0000
0000
0000
0000
0000
0000
0000
0F80
3FE0
7FF0
7FF0
FFF8
FFF8
FFF8
FFF8
7FF0
7FF0
3FE0
0F80
ENDCHAR
STARTCHAR semicolon
ENCODING 59
SWIDTH 400 0
DWIDTH 32 0
BBX 17 52 6 -12
BITMAP
00F800
03FE00
07FF00
07FF00
0FFF80
0FFF80
0FFF80
0FFF80
07FF00
07FF00
03FE00
00F800
000000
000000
000000
000000
000000
000000
000000
000000
000000
000000
000000
000000
000000
000000
000000
000000
0FFF00
0FFF00
0FFE00
0FFE00
1FFC00
1FFC00
1FF800
1FF800
1FF000
3FF000
3FE000
3FE000
3FC000
3FC000
7F8000
7F8000
7F0000
7F0000
7E0000
FE0000
FC0000
FC0000
F80000
F80000
ENDCHAR
STARTCHAR less
ENCODING 60
SWIDTH 450 0
DWIDTH 36 0
BBX 30 40 3 0
BITMAP
00001FFC
00003FF8
00007FF0
0000FFE0
0001FFC0
0003FF80
0007FF00
000FFE00
001FFC00
003FF800
007FF000
00FFE000
01FFC000
03FF8000
07FF0000
0FFE0000
1FFC0000
3FF80000
7FF00000
FFE00000
FFE00000
7FF00000
3FF80000
1FFC0000
0FFE0000
07FF0000
03FF8000
01FFC000
00FFE000
007FF000
003FF800
001FFC00
000FFE00
0007FF00
0003FF80
0001FFC0
0000FFE0
00007FF0
00003FF8
00001FFC
ENDCHAR
STARTCHAR equal
ENCODING 61
SWIDTH 500 0
DWIDTH 40 0
BBX 32 28 4 8
BITMAP
FFFFFFFF
FFFFFFFF
FFFFFFFF
FFFFFFFF
FFFFFFFF
FFFFFFFF
FFFFFFFF
FFFFFFFF
00000000
00000000
00000000
00000000
00000000
00000000
00000000
00000000
00000000
00000000
00000000
00000000
FFFFFFFF
FFFFFFFF
FFFFFFFF
FFFFFFFF
FFFFFFFF
FFFFFFFF
FFFFFFFF
FFFFFFFF
ENDCHAR
STARTCHAR greater
ENCODING 62
SWIDTH 450 0
DWIDTH 36 0
BBX 30 40 3 0
BITMAP
FFE00000
7FF00000
3FF80000
1FFC0000
0FFE0000
07FF0000
03FF8000
01FFC000
00FFE000
007FF000
003FF800
001FFC00
000FFE00
0007FF00
0003FF80
0001FFC0
0000FFE0
00007FF0
00003FF8
00001FFC
00001FFC
00003FF8
00007FF0
0000FFE0
0001FFC0
0003FF80
0007FF00
000FFE00
001FFC00
003FF800
007FF000
00FFE000
01FFC000
03FF8000
07FF0000
0FFE0000
1FFC0000
3FF80000
7FF00000
FFE00000
ENDCHAR
STARTCHAR question
ENCODING 63
SWIDTH 550 0
DWIDTH 44 0
BBX 37 57 4 0
BITMAP
0003FE0000
001FFFC000
007FFFF000
01FFFFF800
03FFFFFE00
07FFFFFF00
0FFFFFFF80
1FFFFFFFC0
3FFE03FFE0
3FF800FFE0
7FE0003FF0
7FC0001FF0
7FC0000FF8
FF80000FF8
FF800007F8
FF800007F8
FF800007F8
00000007F8
0000000FF8
0000000FF0
0000001FF0
0000003FE0
0000007FE0
000000FFC0
000001FF80
000003FF00
000007FE00
00000FFC00
00001FF800
00003FF000
00007FE000
0000FFC000
0001FF8000
0003FF8000
0003FF0000
0007FF0000
0007FE0000
000FFE0000
000FFE0000
000FFE0000
000FFE0000
0000000000
0000000000
0000000000
0000000000
0001F00000
0007FC0000
000FFE0000
000FFE0000
001FFF0000
001FFF0000
001FFF0000
001FFF0000
000FFE0000
000FFE0000
0007FC0000
0001F00000
ENDCHAR
STARTCHAR at
ENCODING 64
SWIDTH 900 0
DWIDTH 72 0
BBX 69 69 4 -10
BITMAP
00000001FF80000000
0000003FFFFC000000
000001FFFFFF800000
00000FFFFFFFE00000
00003FFFFFFFF80000
00007FFFFFFFFE0000
0001FFFE003FFF0000
0003FFE00001FF8000
000FFF0000007FE000
001FFC0000001FF000
003FF00000000FF800
007FC000000003FC00
00FF8000000001FC00
01FF0000000000FE00
03FE00000000007F00
03FC00000000003F00
07F800000000003F80
07F000000000001F80
0FE000000000001FC0
1FE000001FFF000FC0
1FC00001FFFF000FE0
1FC00007FFFF0007E0
3F80001FFFFF0007F0
3F80003FFFFF0003F0
3F80007FFFFF0003F0
7F0000FFFFFF0003F0
7F0001FFFFFF0003F8
7F0003FF00FF0001F8
7F0007FC00FF0001F8
FE0007F800FF0001F8
FE000FF000FF0001F8
FE000FF000FF0001F8
FE001FE000FF0001F8
FE001FE000FF0001F8
FE001FC000FF0001F8
FE001FC000FF0001F8
FE003FC000FF0001F8
FE003FC000FF0001F8
FE003FC000FF0001F8
FE003FC000FF0003F8
FE003FC000FF0003F0
FE003FC000FF0003F0
FE003FC000FF0003F0
7F003FC000FF0007E0
7F003FE001FF0007E0
7F003FE001FF000FC0
3F001FF003FF800FC0
3F801FF007FF801F80
3F801FF80FFF803F80
1FC00FFE3FFFC07F00
1FC00FFFFF9FF1FE00
0FE003FFFF1FFFFC00
0FE001FFFE0FFFF800
07F000FFFC07FFF000
03F8001FE003FFC000
03FC000000007F0000
01FE00000000000000
00FF00000000000000
007F80000000000000
003FC0000000000000
001FF0000000030000
000FFC0000000F0000
0007FF0000003F0000
0001FFE00001FC0000
0000FFFE003FF00000
00003FFFFFFFC00000
000007FFFFFF000000
000000FFFFF0000000
0000000FFF00000000
ENDCHAR
STARTCHAR A
ENCODING 65
SWIDTH 650 0
DWIDTH 52 0
BBX 49 56 4 0
BITMAP
00000FF8000000
00001FFC000000
00001FFC000000
00001FFC000000
00003FFE000000
00003FFE000000
00003FFE000000
00007FFF000000
00007FFF000000
0000FFFF000000
0000FF7F800000
0000FF7F800000
0001FF7FC00000
0001FE3FC00000
0001FE3FC00000
0003FC1FE00000
0003FC1FE00000
0003FC1FE00000
0007F80FF00000
0007F80FF00000
000FF80FF80000
000FF007F80000
000FF007F80000
001FF007FC0000
001FE003FC0000
001FE003FC0000
003FC001FE0000
003FC001FE0000
007FC001FE0000
007F8000FF0000
007F8000FF0000
00FF8000FF8000
00FF00007F8000
00FF00007F8000
01FF00007FC000
01FE00003FC000
01FFFFFFFFC000
03FFFFFFFFE000
03FFFFFFFFE000
07FFFFFFFFF000
07FFFFFFFFF000
07FFFFFFFFF000
0FFFFFFFFFF800
0FFFFFFFFFF800
0FF0000007F800
1FF0000007FC00
1FE0000003FC00
3FE0000003FC00
3FE0000003FE00
3FC0000001FE00
7FC0000001FF00
7FC0000001FF00
7F80000000FF00
FF80000000FF80
FF00000000FF80
FF000000007F80
ENDCHAR
STARTCHAR B
ENCODING 66
SWIDTH 600 0
DWIDTH 48 0
BBX 37 56 8 0
BITMAP
FFFFF80000
FFFFFF0000
FFFFFFC000
FFFFFFE000
FFFFFFF000
FFFFFFF800
FFFFFFFC00
FFFFFFFE00
FF000FFE00
FF0003FF00
FF0001FF00
FF0000FF80
FF0000FF80
FF00007F80
FF00007F80
FF00007F80
FF00007F80
FF00007F80
FF00007F80
FF0000FF80
FF0000FF00
FF0001FF00
FF0007FE00
FFFFFFFE00
FFFFFFFC00
FFFFFFF800
FFFFFFF000
FFFFFFFC00
FFFFFFFE00
FFFFFFFF80
FFFFFFFFC0
FF0003FFC0
FF0000FFE0
FF00007FF0
FF00003FF0
FF00001FF0
FF00001FF8
FF00000FF8
FF00000FF8
FF00000FF8
FF00000FF8
FF00000FF8
FF00000FF8
FF00001FF8
FF00001FF8
FF00003FF8
FF00007FF0
FF0001FFF0
FFFFFFFFE0
FFFFFFFFE0
FFFFFFFFC0
FFFFFFFF80
FFFFFFFF00
FFFFFFFE00
FFFFFFF800
FFFFFFE000
ENDCHAR
STARTCHAR C
ENCODING 67
SWIDTH 650 0
DWIDTH 52 0
BBX 44 58 8 -1
BITMAP
000001FF8000
00001FFFF000
0000FFFFFE00
0003FFFFFF00
0007FFFFFFC0
001FFFFFFFE0
003FFFFFFFF0
007FFFE7FFE0
00FFFE007FC0
01FFE0001F80
03FFC0000700
07FF00000200
07FE00000000
0FFC00000000
1FF800000000
1FF000000000
3FF000000000
3FE000000000
3FE000000000
7FC000000000
7FC000000000
7F8000000000
FF8000000000
FF8000000000
FF0000000000
FF0000000000
FF0000000000
FF0000000000
FF0000000000
FF0000000000
FF0000000000
FF0000000000
FF0000000000
FF0000000000
FF8000000000
FF8000000000
7F8000000000
7FC000000000
7FC000000000
3FE000000000
3FE000000000
3FF000000000
1FF000000000
1FF800000000
0FFC00000000
0FFE00000000
07FF00000200
03FFC0000700
01FFE0001F80
00FFFE007FC0
007FFFE7FFE0
003FFFFFFFF0
001FFFFFFFE0
0007FFFFFFC0
0003FFFFFF00
0000FFFFFE00
00001FFFF000
000001FF8000
ENDCHAR
STARTCHAR D
ENCODING 68
SWIDTH 700 0
DWIDTH 56 0
BBX 45 56 8 0
BITMAP
FFFFF8000000
FFFFFF800000
FFFFFFF00000
FFFFFFFC0000
FFFFFFFF0000
FFFFFFFF8000
FFFFFFFFE000
FFFFFFFFF000
FF0003FFF800
FF00007FFC00
FF00001FFE00
FF000007FE00
FF000003FF00
FF000001FF80
FF000000FF80
FF0000007FC0
FF0000003FC0
FF0000003FE0
FF0000001FE0
FF0000001FF0
FF0000000FF0
FF0000000FF0
FF0000000FF0
FF00000007F8
FF00000007F8
FF00000007F8
FF00000007F8
FF00000007F8
FF00000007F8
FF00000007F8
FF00000007F8
FF00000007F8
FF00000007F8
FF0000000FF8
FF0000000FF8
FF0000000FF8
FF0000001FF0
FF0000001FF0
FF0000003FF0
FF0000003FE0
FF0000007FE0
FF000000FFC0
FF000001FFC0
FF000003FF80
FF000007FF00
FF00001FFE00
FF00007FFC00
FF0003FFF800
FFFFFFFFF000
FFFFFFFFE000
FFFFFFFF8000
FFFFFFFF0000
FFFFFFFC0000
FFFFFFF00000
FFFFFF800000
FFFFF8000000
ENDCHAR
STARTCHAR E
ENCODING 69
SWIDTH 550 0
DWIDTH 44 0
BBX 36 56 8 0
BITMAP
FFFFFFFF00
FFFFFFFF00
FFFFFFFF00
FFFFFFFF00
FFFFFFFF00
FFFFFFFF00
FFFFFFFF00
FFFFFFFF00
FF00000000
FF00000000
FF00000000
FF00000000
FF00000000
FF00000000
FF00000000
FF00000000
FF00000000
FF00000000
FF00000000
FF00000000
FF00000000
FF00000000
FF00000000
FF00000000
FFFFFFF000
FFFFFFF000
FFFFFFF000
FFFFFFF000
FFFFFFF000
FFFFFFF000
FFFFFFF000
FFFFFFF000
FF00000000
FF00000000
FF00000000
FF00000000
FF00000000
FF00000000
FF00000000
FF00000000
FF00000000
FF00000000
FF00000000
FF00000000
FF00000000
FF00000000
FF00000000
FF00000000
FFFFFFFFF0
FFFFFFFFF0
FFFFFFFFF0
FFFFFFFFF0
FFFFFFFFF0
FFFFFFFFF0
FFFFFFFFF0
FFFFFFFFF0
ENDCHAR
STARTCHAR F
ENCODING 70
SWIDTH 500 0
DWIDTH 40 0
BBX 32 56 8 0
BITMAP
FFFFFFFF
FFFFFFFF
FFFFFFFF
FFFFFFFF
FFFFFFFF
FFFFFFFF
FFFFFFFF
FFFFFFFF
FF000000
FF000000
FF000000
FF000000
FF000000
FF000000
FF000000
FF000000
FF000000
FF000000
FF000000
FF000000
FF000000
FF000000
FF000000
FF000000
FFFFFFF0
FFFFFFF0
FFFFFFF0
FFFFFFF0
FFFFFFF0
FFFFFFF0
FFFFFFF0
FFFFFFF0
FF000000
FF000000
FF000000
FF000000
FF000000
FF000000
FF000000
FF000000
FF000000
FF000000
FF000000
FF000000
FF000000
FF000000
FF000000
FF000000
FF000000
FF000000
FF000000
FF000000
FF000000
FF000000
FF000000
FF000000
ENDCHAR
STARTCHAR G
ENCODING 71
SWIDTH 700 0
DWIDTH 56 0
BBX 46 57 6 0
BITMAP
000001FFC000
00001FFFF800
0000FFFFFF00
0003FFFFFF80
0007FFFFFFE0
001FFFFFFFF0
003FFFFFFFF0
007FFF80FFE0
00FFFC001FC0
01FFE0000780
03FFC0000100
07FF00000000
07FE00000000
0FFC00000000
1FF800000000
1FF000000000
3FF000000000
3FE000000000
3FE000000000
7FC000000000
7FC000000000
7F8000000000
FF8000000000
FF8000000000
FF0000000000
FF00003FFFFC
FF00003FFFFC
FF00003FFFFC
FF00003FFFFC
FF00003FFFFC
FF00003FFFFC
FF00003FFFFC
FF00003FFFFC
FF00000003FC
FF80000003FC
FF80000003FC
7F80000003FC
7FC0000003FC
7FC0000003FC
3FE0000003FC
3FE0000003FC
3FF0000003FC
1FF8000003FC
1FFC000003FC
0FFE000003FC
07FF000003FC
03FFC00003FC
01FFF00003FC
00FFFE0003FC
007FFFFFFFFC
003FFFFFFFFC
000FFFFFFFFC
0007FFFFFFFC
0001FFFFFFFC
00007FFFFFFC
00000FFFFFFC
000000FFFFFC
ENDCHAR
STARTCHAR H
ENCODING 72
SWIDTH 650 0
DWIDTH 52 0
BBX 40 56 8 0
BITMAP
FF000000FF
FF000000FF
FF000000FF
FF000000FF
FF000000FF
FF000000FF
FF000000FF
FF000000FF
FF000000FF
FF000000FF
FF000000FF
FF000000FF
FF000000FF
FF000000FF
FF000000FF
FF000000FF
FF000000FF
FF000000FF
FF000000FF
FF000000FF
FF000000FF
FF000000FF
FF000000FF
FF000000FF
FFFFFFFFFF
FFFFFFFFFF
FFFFFFFFFF
FFFFFFFFFF
FFFFFFFFFF
FFFFFFFFFF
FFFFFFFFFF
FFFFFFFFFF
FF000000FF
FF000000FF
FF000000FF
FF000000FF
FF000000FF
FF000000FF
FF000000FF
FF000000FF
FF000000FF
FF000000FF
FF000000FF
FF000000FF
FF000000FF
FF000000FF
FF000000FF
FF000000FF
FF000000FF
FF000000FF
FF000000FF
FF000000FF
FF000000FF
FF000000FF
FF000000FF
FF000000FF
ENDCHAR
STARTCHAR I
ENCODING 73
SWIDTH 350 0
DWIDTH 28 0
BBX 8 56 12 0
BITMAP
FF
FF
FF
FF
FF
FF
FF
FF
FF
FF
FF
FF
FF
FF
FF
FF
FF
FF
FF
FF
FF
FF
FF
FF
FF
FF
FF
FF
FF
FF
FF
FF
FF
FF
FF
FF
FF
FF
FF
FF
FF
FF
FF
FF
FF
FF
FF
FF
FF
FF
FF
FF
FF
FF
FF
FF
ENDCHAR
STARTCHAR J
ENCODING 74
SWIDTH 400 0
DWIDTH 32 0
BBX 24 57 4 -1
BITMAP
0000FF
0000FF
0000FF
0000FF
0000FF
0000FF
0000FF
0000FF
0000FF
0000FF
0000FF
0000FF
0000FF
0000FF
0000FF
0000FF
0000FF
0000FF
0000FF
0000FF
0000FF
0000FF
0000FF
0000FF
0000FF
0000FF
0000FF
0000FF
0000FF
0000FF
0000FF
0000FF
0000FF
0000FF
0000FF
0000FF
0000FF
0000FF
0000FF
0000FF
0000FF
0000FF
0000FF
0400FF
0C00FF
1E00FF
3E01FF
7F01FF
FF87FF
FFFFFE
FFFFFE
7FFFFE
3FFFFC
3FFFF8
0FFFF0
07FFC0
00FE00
ENDCHAR
STARTCHAR K
ENCODING 75
SWIDTH 600 0
DWIDTH 48 0
BBX 46 56 8 0
BITMAP
FF000001FF00
FF000003FF00
FF000007FE00
FF00000FFC00
FF00001FF800
FF00003FF000
FF00007FE000
FF0000FFC000
FF0001FF8000
FF0003FF0000
FF0007FE0000
FF000FFC0000
FF001FF80000
FF003FF00000
FF007FE00000
FF00FFC00000
FF01FF800000
FF03FF000000
FF07FE000000
FF0FFC000000
FF1FF8000000
FF3FF0000000
FFFFE0000000
FFFFC0000000
FFFF80000000
FFFF00000000
FFFF80000000
FFFFC0000000
FFFFE0000000
FFFFF0000000
FFFFF8000000
FF3FFC000000
FF1FFE000000
FF0FFF000000
FF07FF800000
FF03FFC00000
FF01FFE00000
FF00FFF00000
FF007FF80000
FF003FFC0000
FF001FFE0000
FF000FFF0000
FF0007FF8000
FF0003FFC000
FF0001FFE000
FF0000FFF000
FF00007FF800
FF00003FFC00
FF00001FFE00
FF00000FFF00
FF000007FF80
FF000003FFC0
FF000001FFE0
FF000000FFF0
FF0000007FF8
FF0000003FFC
ENDCHAR
STARTCHAR L
ENCODING 76
SWIDTH 450 0
DWIDTH 36 0
BBX 28 56 8 0
BITMAP
FF000000
FF000000
FF000000
FF000000
FF000000
FF000000
FF000000
FF000000
FF000000
FF000000
FF000000
FF000000
FF000000
FF000000
FF000000
FF000000
FF000000
FF000000
FF000000
FF000000
FF000000
FF000000
FF000000
FF000000
FF000000
FF000000
FF000000
FF000000
FF000000
FF000000
FF000000
FF000000
FF000000
FF000000
FF000000
FF000000
FF000000
FF000000
FF000000
FF000000
FF000000
FF000000
FF000000
FF000000
FF000000
FF000000
FF000000
FF000000
FFFFFFF0
FFFFFFF0
FFFFFFF0
FFFFFFF0
FFFFFFF0
FFFFFFF0
FFFFFFF0
FFFFFFF0
ENDCHAR
STARTCHAR M
ENCODING 77
SWIDTH 800 0
DWIDTH 64 0
BBX 52 56 8 0
BITMAP
FE0000000007F0
FE0000000007F0
FF000000000FF0
FF000000000FF0
FF800000001FF0
FF800000001FF0
FFC00000003FF0
FFC00000003FF0
FFE00000007FF0
FFE00000007FF0
FFF0000000FFF0
FFF0000000FFF0
FFF8000001FFF0
FFF8000001FFF0
FFFC000003FFF0
FFFC000003FFF0
FFFE000007FFF0
FFFE000007FFF0
FFFF00000FFFF0
FFFF00000FFFF0
FFFF80001FFFF0
FF7F80001FEFF0
FF7FC0003FEFF0
FF3FC0003FCFF0
FF3FE0007FCFF0
FF1FE0007F8FF0
FF1FF000FF8FF0
FF0FF000FF0FF0
FF0FF801FF0FF0
FF07F801FE0FF0
FF07FC03FE0FF0
FF03FC03FC0FF0
FF03FE07FC0FF0
FF01FE07F80FF0
FF01FF0FF80FF0
FF00FF0FF00FF0
FF00FF9FF00FF0
FF007F9FE00FF0
FF007FFFE00FF0
FF003FFFC00FF0
FF003FFFC00FF0
FF001FFF800FF0
FF001FFF800FF0
FF000FFF000FF0
FF000FFF000FF0
FF0007FE000FF0
FF0007FE000FF0
FF0003FC000FF0
FF0003FC000FF0
FF0001F8000FF0
FF0001F8000FF0
FF0000F0000FF0
FF0000F0000FF0
FF000060000FF0
FF000060000FF0
FF000000000FF0
ENDCHAR
STARTCHAR N
ENCODING 78
SWIDTH 650 0
DWIDTH 52 0
BBX 40 56 8 0
BITMAP
FF000000FF
FF000000FF
FF800000FF
FF800000FF
FFC00000FF
FFE00000FF
FFE00000FF
FFF00000FF
FFF00000FF
FFF80000FF
FFFC0000FF
FFFC0000FF
FFFE0000FF
FFFE0000FF
FFFF0000FF
FFFF8000FF
FFFF8000FF
FF7FC000FF
FF7FC000FF
FF3FE000FF
FF3FF000FF
FF1FF000FF
FF0FF800FF
FF0FF800FF
FF07FC00FF
FF07FE00FF
FF03FE00FF
FF01FF00FF
FF01FF00FF
FF00FF80FF
FF00FFC0FF
FF007FC0FF
FF003FE0FF
FF003FE0FF
FF001FF0FF
FF001FF8FF
FF000FF8FF
FF0007FCFF
FF0007FCFF
FF0003FEFF
FF0003FFFF
FF0001FFFF
FF0000FFFF
FF0000FFFF
FF00007FFF
FF00007FFF
FF00003FFF
FF00001FFF
FF00001FFF
FF00000FFF
FF00000FFF
FF000007FF
FF000003FF
FF000003FF
FF000001FF
FF000001FF
ENDCHAR
STARTCHAR O
ENCODING 79
SWIDTH 750 0
DWIDTH 60 0
BBX 56 58 7 -1
BITMAP
000001FF800000
00001FFFF00000
0000FFFFFE0000
0003FFFFFF8000
0007FFFFFFE000
001FFFFFFFF000
003FFFFFFFFC00
007FFFE7FFFE00
00FFFE007FFF00
01FFE00007FF80
03FFC00003FFC0
07FF000000FFE0
07FE0000007FF0
0FFC0000003FF0
1FF80000001FF8
1FF00000000FF8
3FF00000000FFC
3FE000000007FC
3FE000000007FC
7FC000000003FE
7FC000000003FE
7F8000000001FE
FF8000000001FF
FF8000000001FF
FF0000000000FF
FF0000000000FF
FF0000000000FF
FF0000000000FF
FF0000000000FF
FF0000000000FF
FF0000000000FF
FF0000000000FF
FF0000000000FF
FF0000000000FF
FF8000000001FF
FF8000000001FF
7F8000000001FE
7FC000000003FE
7FC000000003FE
3FE000000007FC
3FE000000007FC
3FF00000000FFC
1FF00000000FF8
1FF80000001FF8
0FFC0000003FF0
07FE0000007FE0
07FF000000FFE0
03FFC00003FFC0
01FFF0000FFF80
00FFFE007FFF00
007FFFE7FFFE00
003FFFFFFFFC00
000FFFFFFFF000
0007FFFFFFE000
0001FFFFFF8000
00007FFFFE0000
00000FFFF00000
000001FF800000
ENDCHAR
STARTCHAR P
ENCODING 80
SWIDTH 550 0
DWIDTH 44 0
BBX 37 56 8 0
BITMAP
FFFFFC0000
FFFFFF8000
FFFFFFE000
FFFFFFF800
FFFFFFFC00
FFFFFFFE00
FFFFFFFF00
FFFFFFFF80
FF0007FF80
FF0001FFC0
FF0000FFE0
FF00007FE0
FF00003FE0
FF00003FF0
FF00001FF0
FF00001FF0
FF00001FF0
FF00000FF8
FF00000FF8
FF00000FF8
FF00000FF8
FF00000FF8
FF00000FF8
FF00001FF8
FF00001FF0
FF00001FF0
FF00003FF0
FF00003FE0
FF00007FE0
FF0000FFE0
FF0001FFC0
FF0007FF80
FFFFFFFF80
FFFFFFFF00
FFFFFFFE00
FFFFFFFC00
FFFFFFF800
FFFFFFE000
FFFFFF8000
FFFFFC0000
FF00000000
FF00000000
FF00000000
FF00000000
FF00000000
FF00000000
FF00000000
FF00000000
FF00000000
FF00000000
FF00000000
FF00000000
FF00000000
FF00000000
FF00000000
FF00000000
ENDCHAR
STARTCHAR Q
ENCODING 81
SWIDTH 850 0
DWIDTH 68 0
BBX 61 58 7 -1
BITMAP
000001FF80000000
00001FFFF8000000
0000FFFFFF000000
0003FFFFFFC00000
0007FFFFFFE00000
001FFFFFFFF80000
003FFFFFFFFC0000
007FFFE7FFFE0000
00FFFE007FFF0000
01FFE00007FF8000
03FFC00003FFC000
07FF000000FFE000
07FE0000007FF000
0FFC0000003FF000
1FF80000001FF800
1FF00000000FF800
3FF00000000FFC00
3FE000000007FC00
3FE000000007FC00
7FC000000003FE00
7FC000000003FE00
7F8000000001FE00
FF8000000001FF00
FF8000000001FF00
FF0000000000FF00
FF0000000000FF00
FF0000000000FF00
FF0000000000FF00
FF0007F80000FF00
FF003FFF0000FF00
FF00FFFFC000FF00
FF01FFFFF000FF00
FF03FFFFF800FF00
FF07FFFFFC00FF00
FF8FFFFFFE01FF00
FF8FFFFFFF01FF00
7F9FE01FFF81FE00
7FDFC007FFC3FE00
7FDF0001FFE3FE00
3FFF0000FFF3FC00
3FFE00007FFFFC00
3FFE00003FFFFC00
1FFE00001FFFF800
1FFE00000FFFF800
0FFE000007FFF000
07FE000003FFE000
07FF000001FFE000
03FFC00003FFF000
01FFE00007FFF800
00FFFE007FFFFC00
007FFFE7FFFFFE00
003FFFFFFFFFFF00
000FFFFFFFF7FF80
0007FFFFFFE3FFC0
0001FFFFFF81FFE0
00007FFFFE00FFF0
00000FFFF0007FF8
000001FF80000000
ENDCHAR
STARTCHAR R
ENCODING 82
SWIDTH 600 0
DWIDTH 48 0
BBX 44 56 8 0
BITMAP
FFFFFE000000
FFFFFFC00000
FFFFFFF00000
FFFFFFFC0000
FFFFFFFE0000
FFFFFFFF0000
FFFFFFFF8000
FFFFFFFFC000
FF0003FFC000
FF0000FFE000
FF00007FF000
FF00003FF000
FF00003FF000
FF00001FF800
FF00001FF800
FF00000FF800
FF00000FF800
FF00000FF800
FF00000FF800
FF00000FF800
FF00000FF800
FF00001FF800
FF00001FF800
FF00003FF000
FF00003FF000
FF00007FF000
FF0000FFE000
FF0003FFC000
FFFFFFFFC000
FFFFFFFF8000
FFFFFFFF0000
FFFFFFFE0000
FFFFFFF80000
FFFFFFF00000
FFFFFFC00000
FFFFFF800000
FF03FFC00000
FF01FFE00000
FF00FFF00000
FF007FF80000
FF003FFC0000
FF001FFE0000
FF000FFF0000
FF0007FF8000
FF0003FFC000
FF0001FFE000
FF0000FFF000
FF00007FF800
FF00003FFC00
FF00001FFE00
FF00000FFF00
FF000007FF80
FF000003FFC0
FF000001FFE0
FF000000FFF0
FF0000007FF0
ENDCHAR
STARTCHAR S
ENCODING 83
SWIDTH 550 0
DWIDTH 44 0
BBX 41 58 4 -1
BITMAP
00007FC00000
0003FFF80000
000FFFFE0000
003FFFFF0000
007FFFFF8000
00FFFFFFC000
01FFFFFFE000
03FFFFFFE000
03FF807FF000
07FE001FF000
07FC001FF800
0FF8000FF800
0FF8000FF800
0FF000000000
0FF000000000
0FF000000000
0FF800000000
0FF800000000
0FFE00000000
07FF80000000
07FFE0000000
03FFF8000000
03FFFE000000
01FFFF800000
00FFFFE00000
003FFFF80000
001FFFFE0000
0007FFFF0000
0001FFFFC000
00007FFFE000
00000FFFF000
000003FFF800
000000FFFC00
0000003FFC00
0000000FFE00
00000007FF00
00000003FF00
00000001FF00
00000001FF80
00000000FF80
00000000FF80
00000000FF80
06000000FF80
0F000000FF80
1F800000FF80
3FC00001FF00
7FE00001FF00
FFF80003FF00
7FFC000FFE00
3FFF803FFE00
1FFFFFFFFC00
0FFFFFFFF800
07FFFFFFF000
03FFFFFFE000
00FFFFFF8000
003FFFFE0000
000FFFF80000
0001FF800000
ENDCHAR
STARTCHAR T
ENCODING 84
SWIDTH 550 0
DWIDTH 44 0
BBX 40 56 4 0
BITMAP
FFFFFFFFFF
FFFFFFFFFF
FFFFFFFFFF
FFFFFFFFFF
FFFFFFFFFF
FFFFFFFFFF
FFFFFFFFFF
FFFFFFFFFF
0000FF0000
0000FF0000
0000FF0000
0000FF0000
0000FF0000
0000FF0000
0000FF0000
0000FF0000
0000FF0000
0000FF0000
0000FF0000
0000FF0000
0000FF0000
0000FF0000
0000FF0000
0000FF0000
0000FF0000
0000FF0000
0000FF0000
0000FF0000
0000FF0000
0000FF0000
0000FF0000
0000FF0000
0000FF0000
0000FF0000
0000FF0000
0000FF0000
0000FF0000
0000FF0000
0000FF0000
0000FF0000
0000FF0000
0000FF0000
0000FF0000
0000FF0000
0000FF0000
0000FF0000
0000FF0000
0000FF0000
0000FF0000
0000FF0000
0000FF0000
0000FF0000
0000FF0000
0000FF0000
0000FF0000
0000FF0000
ENDCHAR
STARTCHAR U
ENCODING 85
SWIDTH 650 0
DWIDTH 52 0
BBX 40 57 8 -1
BITMAP
FF000000FF
FF000000FF
FF000000FF
FF000000FF
FF000000FF
FF000000FF
FF000000FF
FF000000FF
FF000000FF
FF000000FF
FF000000FF
FF000000FF
FF000000FF
FF000000FF
FF000000FF
FF000000FF
FF000000FF
FF000000FF
FF000000FF
FF000000FF
FF000000FF
FF000000FF
FF000000FF
FF000000FF
FF000000FF
FF000000FF
FF000000FF
FF000000FF
FF000000FF
FF000000FF
FF000000FF
FF000000FF
FF000000FF
FF000000FF
FF000000FF
FF000000FF
FF000000FF
FF000000FF
FF000000FF
FF000000FF
FF000000FF
FF000000FF
FF000000FF
FF800001FF
7F800001FE
7FC00003FE
7FE00007FE
3FF0000FFC
3FFC003FFC
1FFF01FFF8
0FFFFFFFF0
07FFFFFFE0
03FFFFFFC0
01FFFFFF00
007FFFFE00
001FFFF000
0003FF8000
ENDCHAR
STARTCHAR V
ENCODING 86
SWIDTH 650 0
DWIDTH 52 0
BBX 49 56 4 0
BITMAP
FF000000007F80
FF00000000FF80
FF80000000FF80
7F80000000FF00
7FC0000001FF00
7FC0000001FF00
3FC0000001FE00
3FE0000003FE00
3FE0000003FC00
1FE0000003FC00
1FF0000007FC00
0FF0000007F800
0FF8000007F800
0FF800000FF800
07F800000FF000
07FC00000FF000
07FC00001FF000
03FC00001FE000
03FE00001FE000
01FE00003FC000
01FE00003FC000
01FF00007FC000
00FF00007F8000
00FF00007F8000
00FF8000FF8000
007F8000FF0000
007F8000FF0000
007FC001FE0000
003FC001FE0000
003FC001FE0000
001FE003FC0000
001FE003FC0000
001FF007FC0000
000FF007F80000
000FF007F80000
000FF80FF80000
0007F80FF00000
0007F80FF00000
0003FC1FE00000
0003FC1FE00000
0003FC1FE00000
0001FE3FC00000
0001FE3FC00000
0001FF7FC00000
0000FF7F800000
0000FF7F800000
0000FFFF000000
00007FFF000000
00007FFF000000
00003FFE000000
00003FFE000000
00003FFE000000
00001FFC000000
00001FFC000000
00001FFC000000
00000FF8000000
ENDCHAR
STARTCHAR W
ENCODING 87
SWIDTH 850 0
DWIDTH 68 0
BBX 69 56 3 0
BITMAP
FF8000000000000FF8
7F800000FC00000FF0
7F800000FC00000FF0
7F800001FC00000FF0
7FC00001FE00001FF0
3FC00001FE00001FE0
3FC00003FE00001FE0
3FC00003FE00001FE0
3FE00003FF00001FE0
1FE00003FF00003FC0
1FE00007FF00003FC0
1FE00007FF00003FC0
0FF00007FF80003FC0
0FF00007FF80007F80
0FF0000FFF80007F80
0FF0000FFF80007F80
07F8000FFFC0007F80
07F8000FDFC000FF00
07F8001FDFC000FF00
07F8001FDFC000FF00
03F8001FDFE000FF00
03FC001F8FE001FE00
03FC003F8FE001FE00
03FC003F8FE001FE00
01FC003F8FF001FC00
01FE003F07F001FC00
01FE007F07F003FC00
01FE007F07F003FC00
00FE007F07F803F800
00FF007E03F803F800
00FF00FE03F807F800
00FF00FE03F807F800
007F00FE03FC07F000
007F80FC01FC07F000
007F81FC01FC0FF000
003F81FC01FC0FF000
003F81FC01FE0FE000
003FC1F800FE0FE000
003FC3F800FE0FE000
001FC3F800FE1FE000
001FC3F800FF1FC000
001FE3F0007F1FC000
001FE3F0007F1FC000
000FE7F0007F3FC000
000FE7F0007FBF8000
000FF7E0003FBF8000
000FF7E0003FBF8000
0007FFE0003FFF8000
0007FFE0003FFF0000
0007FFC0001FFF0000
0007FFC0001FFF0000
0003FFC0001FFF0000
0003FFC0001FFE0000
0003FF80000FFE0000
0003FF80000FFE0000
0001FF80000FFC0000
ENDCHAR
STARTCHAR X
ENCODING 88
SWIDTH 550 0
DWIDTH 44 0
BBX 41 56 6 0
BITMAP
FF800000FF80
7F800000FF00
7FC00001FF00
3FC00001FE00
3FE00003FE00
1FE00003FC00
1FF00007FC00
0FF8000FF800
0FF8000FF800
07FC001FF000
03FC001FE000
03FE003FE000
01FE003FC000
01FF007FC000
00FF007F8000
00FF80FF8000
007FC1FF0000
007FC1FF0000
003FE3FE0000
001FE3FC0000
001FF7FC0000
000FF7F80000
000FFFF80000
0007FFF00000
0007FFF00000
0003FFE00000
0001FFE00000
0001FFC00000
0001FFC00000
0001FFE00000
0003FFE00000
0007FFF00000
0007FFF00000
000FFFF80000
000FF7F80000
001FF7FC0000
001FE3FC0000
003FE3FE0000
007FC1FF0000
007FC1FF0000
00FF80FF8000
00FF007F8000
01FF007FC000
01FE003FC000
03FE003FE000
03FC001FE000
07FC001FF000
0FF8000FF800
0FF8000FF800
1FF00007FC00
1FE00003FC00
3FE00003FE00
3FC00001FE00
7FC00001FF00
7F800000FF00
FF800000FF80
ENDCHAR
STARTCHAR Y
ENCODING 89
SWIDTH 550 0
DWIDTH 44 0
BBX 42 56 3 0
BITMAP
FF8000007FC0
7F8000007F80
7FC00000FF80
3FC00000FF00
3FE00001FF00
1FE00001FE00
1FF00003FE00
0FF00003FC00
0FF80007FC00
07F80007F800
07FC000FF800
03FC000FF000
03FE001FF000
01FE001FE000
01FF003FE000
00FF003FC000
00FF807FC000
007F807F8000
007FC0FF8000
003FC0FF0000
003FE1FF0000
001FE1FE0000
001FF3FE0000
000FF3FC0000
000FFFFC0000
0007FFF80000
0007FFF80000
0003FFF00000
0003FFF00000
0001FFE00000
0001FFE00000
0000FFC00000
0000FFC00000
00007F800000
00007F800000
00007F800000
00007F800000
00007F800000
00007F800000
00007F800000
00007F800000
00007F800000
00007F800000
00007F800000
00007F800000
00007F800000
00007F800000
00007F800000
00007F800000
00007F800000
00007F800000
00007F800000
00007F800000
00007F800000
00007F800000
00007F800000
ENDCHAR
STARTCHAR Z
ENCODING 90
SWIDTH 600 0
DWIDTH 48 0
BBX 43 56 6 0
BITMAP
3FFFFFFFFF80
3FFFFFFFFF80
3FFFFFFFFF00
3FFFFFFFFF00
3FFFFFFFFE00
3FFFFFFFFE00
3FFFFFFFFC00
3FFFFFFFFC00
0000000FF800
0000001FF000
0000003FF000
0000003FE000
0000007FE000
0000007FC000
000000FFC000
000000FF8000
000001FF0000
000003FF0000
000003FE0000
000007FE0000
000007FC0000
00000FFC0000
00000FF80000
00001FF00000
00003FF00000
00003FE00000
00007FE00000
00007FC00000
0000FFC00000
0000FF800000
0001FF000000
0003FF000000
0003FE000000
0007FE000000
0007FC000000
000FFC000000
001FF8000000
001FF0000000
003FF0000000
007FE0000000
007FE0000000
00FFC0000000
00FFC0000000
01FF80000000
01FF00000000
03FF00000000
07FE00000000
07FE00000000
0FFFFFFFFFE0
0FFFFFFFFFE0
1FFFFFFFFFE0
1FFFFFFFFFE0
3FFFFFFFFFE0
7FFFFFFFFFE0
7FFFFFFFFFE0
FFFFFFFFFFE0
ENDCHAR
STARTCHAR bracketleft
ENCODING 91
SWIDTH 400 0
DWIDTH 32 0
BBX 16 72 12 -12
BITMAP
FFFF
FFFF
FFFF
FFFF
FF00
FF00
FF00
FF00
FF00
FF00
FF00
FF00
FF00
FF00
FF00
FF00
FF00
FF00
FF00
FF00
FF00
FF00
FF00
FF00
FF00
FF00
FF00
FF00
FF00
FF00
FF00
FF00
FF00
FF00
FF00
FF00
FF00
FF00
FF00
FF00
FF00
FF00
FF00
FF00
FF00
FF00
FF00
FF00
FF00
FF00
FF00
FF00
FF00
FF00
FF00
FF00
FF00
FF00
FF00
FF00
FF00
FF00
FF00
FF00
FF00
FF00
FF00
FF00
FFFF
FFFF
FFFF
FFFF
ENDCHAR
STARTCHAR backslash
ENCODING 92
SWIDTH 512 0
DWIDTH 41 0
BBX 41 68 0 -8
BITMAP
FF0000000000
FF0000000000
7F8000000000
7F8000000000
3FC000000000
3FC000000000
1FE000000000
1FE000000000
0FF000000000
0FF000000000
07F800000000
07F800000000
03FC00000000
03FC00000000
01FE00000000
01FE00000000
00FF00000000
00FF00000000
007F80000000
007F80000000
003FC0000000
003FC0000000
001FE0000000
001FE0000000
000FF0000000
000FF0000000
0007F8000000
0007F8000000
0003FC000000
0003FC000000
0001FE000000
0001FE000000
0000FF000000
0000FF000000
00007F800000
00007F800000
00003FC00000
00003FC00000
00001FE00000
00001FE00000
00000FF00000
00000FF00000
000007F80000
000007F80000
000003FC0000
000003FC0000
000001FE0000
000001FE0000
000000FF0000
000000FF0000
0000007F8000
0000007F8000
0000003FC000
0000003FC000
0000001FE000
0000001FE000
0000000FF000
0000000FF000
00000007F800
00000007F800
00000003FC00
00000003FC00
00000001FE00
00000001FE00
00000000FF00
00000000FF00
000000007F80
000000007F80
ENDCHAR
STARTCHAR bracketright
ENCODING 93
SWIDTH 400 0
DWIDTH 32 0
BBX 16 72 4 -12
BITMAP
FFFF
FFFF
FFFF
FFFF
00FF
00FF
00FF
00FF
00FF
00FF
00FF
00FF
00FF
00FF
00FF
00FF
00FF
00FF
00FF
00FF
00FF
00FF
00FF
00FF
00FF
00FF
00FF
00FF
00FF
00FF
00FF
00FF
00FF
00FF
00FF
00FF
00FF
00FF
00FF
00FF
00FF
00FF
00FF
00FF
00FF
00FF
00FF
00FF
00FF
00FF
00FF
00FF
00FF
00FF
00FF
00FF
00FF
00FF
00FF
00FF
00FF
00FF
00FF
00FF
00FF
00FF
00FF
00FF
FFFF
FFFF
FFFF
FFFF
ENDCHAR
STARTCHAR asciicircum
ENCODING 94
SWIDTH 600 0
DWIDTH 48 0
BBX 39 17 7 40
BITMAP
0000FE0000
0001FF0000
0003FF8000
0007FFC000
000FEFE000
001FC7F000
003F83F800
007F01FC00
00FE00FE00
01FC007F00
03F8003F80
07F0001FC0
0FE0000FE0
1FC00007F0
3F800003F8
7F000001FC
FE000000FE
ENDCHAR
STARTCHAR underscore
ENCODING 95
SWIDTH 650 0
DWIDTH 52 0
BBX 52 4 0 -16
BITMAP
FFFFFFFFFFFFF0
FFFFFFFFFFFFF0
FFFFFFFFFFFFF0
FFFFFFFFFFFFF0
ENDCHAR
STARTCHAR a
ENCODING 97
SWIDTH 500 0
DWIDTH 40 0
BBX 33 43 7 -1
BITMAP
001FFE0000
00FFFFC000
07FFFFF000
07FFFFF800
07FFFFFE00
07FFFFFE00
07FE0FFF00
07E001FF00
070000FF00
0400007F80
0000007F80
0000007F80
0000007F80
0000007F80
000007FF80
00007FFF80
0007FFFF80
003FFFFF80
00FFFFFF80
03FFFFFF80
07FFFC7F80
0FFFE07F80
1FFF007F80
3FFC007F80
3FF0007F80
7FE0007F80
7FC0007F80
FFC0007F80
FF80007F80
FF80007F80
FF80007F80
FF80007F80
FFC000FF80
FFC001FF80
FFE007FF80
7FF83FFF80
7FFFFFFF80
3FFFFFFF80
1FFFFF7F80
0FFFFE7F80
03FFF87F80
01FFF07F80
003F800000
ENDCHAR
STARTCHAR b
ENCODING 98
SWIDTH 550 0
DWIDTH 44 0
BBX 39 57 8 -1
BITMAP
FF00000000
FF00000000
FF00000000
FF00000000
FF00000000
FF00000000
FF00000000
FF00000000
FF00000000
FF00000000
FF00000000
FF00000000
FF00000000
FF00000000
FF00FE0000
FF07FFE000
FF1FFFF800
FF7FFFFE00
FFFFFFFF00
FFFFFFFF80
FFFFFFFFC0
FFFFFFFFE0
FFFC01FFF0
FFF0007FF0
FFC0001FF8
FF80000FF8
FF00000FFC
FF000007FC
FF000003FC
FF000003FE
FF000003FE
FF000001FE
FF000001FE
FF000001FE
FF000001FE
FF000001FE
FF000001FE
FF000001FE
FF000001FE
FF000001FE
FF000003FE
FF000003FE
FF000003FC
FF000007FC
FF000007FC
FF00000FF8
FF80000FF8
FFC0001FF0
FFF0007FF0
FFFC01FFE0
FFFFFFFFC0
FFFFFFFF80
FFFFFFFF00
FF7FFFFE00
FF3FFFFC00
FF0FFFF000
0001FF0000
ENDCHAR
STARTCHAR c
ENCODING 99
SWIDTH 500 0
DWIDTH 40 0
BBX 30 43 8 -1
BITMAP
0000FE00
000FFFC0
003FFFF0
00FFFFFC
01FFFFFC
03FFFFFC
07FFFFFC
0FFFFFFC
1FFF007C
1FFC001C
3FF00004
3FE00000
7FE00000
7FC00000
7F800000
FF800000
FF800000
FF000000
FF000000
FF000000
FF000000
FF000000
FF000000
FF000000
FF000000
FF000000
FF800000
FF800000
7F800000
7FC00000
7FC00000
3FE00000
3FE00000
1FF00004
1FFC001C
0FFF007C
07FFFFFC
03FFFFFC
01FFFFFC
00FFFFFC
007FFFF8
001FFFE0
0001FF00
ENDCHAR
STARTCHAR d
ENCODING 100
SWIDTH 550 0
DWIDTH 44 0
BBX 39 57 8 -1
BITMAP
00000001FE
00000001FE
00000001FE
00000001FE
00000001FE
00000001FE
00000001FE
00000001FE
00000001FE
00000001FE
00000001FE
00000001FE
00000001FE
00000001FE
0000FE01FE
000FFFC1FE
003FFFF1FE
00FFFFFDFE
01FFFFFFFE
03FFFFFFFE
07FFFFFFFE
0FFFFFFFFE
1FFF007FFE
1FFC001FFE
3FF00007FE
3FE00003FE
7FE00001FE
7FC00001FE
7F800001FE
FF800001FE
FF800001FE
FF000001FE
FF000001FE
FF000001FE
FF000001FE
FF000001FE
FF000001FE
FF000001FE
FF000001FE
FF000001FE
FF800001FE
FF800001FE
7F800001FE
7FC00001FE
7FC00001FE
3FE00001FE
3FE00003FE
1FF00007FE
1FFC001FFE
0FFF007FFE
07FFFFFFFE
03FFFFFFFE
01FFFFFFFE
00FFFFFDFE
007FFFF9FE
001FFFE1FE
0001FF0000
ENDCHAR
STARTCHAR e
ENCODING 101
SWIDTH 550 0
DWIDTH 44 0
BBX 38 43 8 -1
BITMAP
0000FE0000
000FFFE000
003FFFF800
00FFFFFE00
01FFFFFF00
03FFFFFF80
07FFFFFFC0
0FFFFFFFE0
1FFF00FFE0
1FFC003FF0
3FF0001FF0
3FE0000FF8
7FE00007F8
7FC00007F8
7F800003FC
FF800003FC
FF80001FFC
FF0000FFFC
FF0007FFFC
FF007FFFFC
FF03FFFFFC
FF3FFFFFF0
FFFFFFFF00
FFFFFFF800
FFFFFF8000
FFFFFC0000
FFFFC00000
FFFE000000
7FE0000000
7F80000000
7FC0000000
3FC0000000
3FE0000060
1FF00001E0
1FFC0007E0
0FFF007FE0
07FFFFFFE0
03FFFFFFE0
01FFFFFFE0
00FFFFFFC0
007FFFFF00
001FFFF800
0001FFC000
ENDCHAR
STARTCHAR f
ENCODING 102
SWIDTH 450 0
DWIDTH 36 0
BBX 36 58 4 0
BITMAP
00000FF000
00007FFE00
0000FFFF80
0003FFFFE0
0007FFFFF0
000FFFFFF0
001FFFFFF0
003FFFFFF0
003FF003F0
007FC00070
007F800010
007F800000
00FF000000
00FF000000
00FF000000
00FF000000
00FF000000
FFFFFFF000
FFFFFFF000
FFFFFFF000
FFFFFFF000
FFFFFFF000
FFFFFFF000
FFFFFFF000
FFFFFFF000
00FF000000
00FF000000
00FF000000
00FF000000
00FF000000
00FF000000
00FF000000
00FF000000
00FF000000
00FF000000
00FF000000
00FF000000
00FF000000
00FF000000
00FF000000
00FF000000
00FF000000
00FF000000
00FF000000
00FF000000
00FF000000
00FF000000
00FF000000
00FF000000
00FF000000
00FF000000
00FF000000
00FF000000
00FF000000
00FF000000
00FF000000
00FF000000
00FF000000
ENDCHAR
STARTCHAR g
ENCODING 103
SWIDTH 550 0
DWIDTH 44 0
BBX 38 57 2 -16
BITMAP
00000FFFFC
0001FFFFFC
0007FFFFFC
001FFFFFFC
007FFFFFFC
00FFFFFFFC
01FFFFFFFC
03FFF003FC
07FF8003FC
0FFE0003FC
1FF80003FC
3FF00003FC
3FE00003FC
7FC00003FC
7FC00003FC
7F800003FC
FF000003FC
FF000003FC
FF000003FC
FF000003FC
FE000003FC
FE000003FC
FE000003FC
FE000003FC
FE000003FC
FF000003FC
FF000003FC
FF000003FC
7F800003FC
7F800007FC
7FC00007FC
3FE0000FFC
3FF0001FFC
1FFC007FFC
1FFF01FFFC
0FFFFFFFFC
07FFFFFFFC
03FFFFFFFC
01FFFFFBFC
007FFFF3FC
001FFFE3FC
0003FF03FC
00000003FC
00000003FC
00000003FC
00000007FC
00000007F8
0040000FF8
0070003FF8
007F00FFF0
007FFFFFF0
007FFFFFE0
007FFFFFC0
007FFFFF80
001FFFFF00
0007FFFC00
0000FFE000
ENDCHAR
STARTCHAR h
ENCODING 104
SWIDTH 500 0
DWIDTH 40 0
BBX 33 56 8 0
BITMAP
FF00000000
FF00000000
FF00000000
FF00000000
FF00000000
FF00000000
FF00000000
FF00000000
FF00000000
FF00000000
FF00000000
FF00000000
FF00000000
FF00000000
FF00000000
FF01FF0000
FF0FFFC000
FF3FFFF000
FF7FFFF800
FFFFFFFC00
FFFFFFFE00
FFFFFFFE00
FFFFFFFF00
FFFC07FF00
FFF001FF00
FFC000FF80
FF8000FF80
FF00007F80
FF00007F80
FF00007F80
FF00007F80
FF00007F80
FF00007F80
FF00007F80
FF00007F80
FF00007F80
FF00007F80
FF00007F80
FF00007F80
FF00007F80
FF00007F80
FF00007F80
FF00007F80
FF00007F80
FF00007F80
FF00007F80
FF00007F80
FF00007F80
FF00007F80
FF00007F80
FF00007F80
FF00007F80
FF00007F80
FF00007F80
FF00007F80
FF00007F80
ENDCHAR
STARTCHAR i
ENCODING 105
SWIDTH 300 0
DWIDTH 24 0
BBX 10 57 11 0
BITMAP
1E00
7F80
7F80
FFC0
FFC0
FFC0
FFC0
7F80
7F80
1E00
0000
0000
0000
0000
0000
0180
0780
1F80
7F80
7F80
7F80
7F80
7F80
7F80
7F80
7F80
7F80
7F80
7F80
7F80
7F80
7F80
7F80
7F80
7F80
7F80
7F80
7F80
7F80
7F80
7F80
7F80
7F80
7F80
7F80
7F80
7F80
7F80
7F80
7F80
7F80
7F80
7F80
7F80
7F80
7F80
7F80
ENDCHAR
STARTCHAR j
ENCODING 106
SWIDTH 350 0
DWIDTH 28 0
BBX 25 73 0 -16
BITMAP
00003C00
0000FF00
0000FF00
0001FF80
0001FF80
0001FF80
0001FF80
0000FF00
0000FF00
00003C00
00000000
00000000
00000000
00000000
00000000
00000300
00000F00
00003F00
0000FF00
0000FF00
0000FF00
0000FF00
0000FF00
0000FF00
0000FF00
0000FF00
0000FF00
0000FF00
0000FF00
0000FF00
0000FF00
0000FF00
0000FF00
0000FF00
0000FF00
0000FF00
0000FF00
0000FF00
0000FF00
0000FF00
0000FF00
0000FF00
0000FF00
0000FF00
0000FF00
0000FF00
0000FF00
0000FF00
0000FF00
0000FF00
0000FF00
0000FF00
0000FF00
0000FF00
0000FF00
0000FF00
0000FF00
0000FF00
0000FF00
0000FF00
0001FF00
0001FF00
0003FE00
C007FE00
F01FFE00
FFFFFC00
FFFFFC00
FFFFF800
FFFFF000
FFFFE000
7FFFC000
3FFF0000
0FF80000
ENDCHAR
STARTCHAR k
ENCODING 107
SWIDTH 550 0
DWIDTH 44 0
BBX 38 56 8 0
BITMAP
FF00000000
FF00000000
FF00000000
FF00000000
FF00000000
FF00000000
FF00000000
FF00000000
FF00000000
FF00000000
FF00000000
FF00000000
FF00000000
FF00000000
FF00000000
FF00003FE0
FF00007FC0
FF0000FF80
FF0001FF00
FF0003FE00
FF0007FC00
FF000FF800
FF001FF000
FF003FE000
FF007FC000
FF00FF8000
FF01FF0000
FF03FE0000
FF07FC0000
FF0FF80000
FF1FF00000
FF3FE00000
FF7FC00000
FFFF800000
FFFFC00000
FFFFE00000
FFFFF00000
FF7FF80000
FF3FFC0000
FF1FFE0000
FF0FFF0000
FF07FF8000
FF03FFC000
FF01FFE000
FF00FFF000
FF007FF800
FF003FFC00
FF001FFE00
FF000FFF00
FF0007FF80
FF0003FFC0
FF0001FFE0
FF0000FFF0
FF00007FF8
FF00003FFC
FF00001FFC
ENDCHAR
STARTCHAR l
ENCODING 108
SWIDTH 400 0
DWIDTH 32 0
BBX 25 57 8 -1
BITMAP
FF000000
FF000000
FF000000
FF000000
FF000000
FF000000
FF000000
FF000000
FF000000
FF000000
FF000000
FF000000
FF000000
FF000000
FF000000
FF000000
FF000000
FF000000
FF000000
FF000000
FF000000
FF000000
FF000000
FF000000
FF000000
FF000000
FF000000
FF000000
FF000000
FF000000
FF000000
FF000000
FF000000
FF000000
FF000000
FF000000
FF000000
FF000000
FF000000
FF000000
FF000000
FF000000
FF000000
FF000000
FF000000
FF800000
7F800000
7FC00180
7FF00F80
3FFFFF80
3FFFFF80
1FFFFF80
0FFFFF80
07FFFF80
03FFFF00
00FFFC00
001FE000
ENDCHAR
STARTCHAR m
ENCODING 109
SWIDTH 800 0
DWIDTH 64 0
BBX 58 42 8 0
BITMAP
0000FF00007F8000
FF07FFC003FFE000
FF1FFFF00FFFF800
FF7FFFF83FFFFC00
FFFFFFFC7FFFFE00
FFFFFFFEFFFFFF00
FFFFFFFFFFFFFF00
FFFFFFFFFFFFFF80
FFFC07FFFE03FF80
FFF001FFF800FF80
FFC000FFE0007FC0
FF8000FFC0007FC0
FF00007F80003FC0
FF00007F80003FC0
FF00007F80003FC0
FF00007F80003FC0
FF00007F80003FC0
FF00007F80003FC0
FF00007F80003FC0
FF00007F80003FC0
FF00007F80003FC0
FF00007F80003FC0
FF00007F80003FC0
FF00007F80003FC0
FF00007F80003FC0
FF00007F80003FC0
FF00007F80003FC0
FF00007F80003FC0
FF00007F80003FC0
FF00007F80003FC0
FF00007F80003FC0
FF00007F80003FC0
FF00007F80003FC0
FF00007F80003FC0
FF00007F80003FC0
FF00007F80003FC0
FF00007F80003FC0
FF00007F80003FC0
FF00007F80003FC0
FF00007F80003FC0
FF00007F80003FC0
FF00007F80003FC0
ENDCHAR
STARTCHAR n
ENCODING 110
SWIDTH 500 0
DWIDTH 40 0
BBX 33 42 8 0
BITMAP
0000FF0000
FF07FFC000
FF1FFFF000
FF7FFFF800
FFFFFFFC00
FFFFFFFE00
FFFFFFFE00
FFFFFFFF00
FFFC07FF00
FFF001FF00
FFC000FF80
FF8000FF80
FF00007F80
FF00007F80
FF00007F80
FF00007F80
FF00007F80
FF00007F80
FF00007F80
FF00007F80
FF00007F80
FF00007F80
FF00007F80
FF00007F80
FF00007F80
FF00007F80
FF00007F80
FF00007F80
FF00007F80
FF00007F80
FF00007F80
FF00007F80
FF00007F80
FF00007F80
FF00007F80
FF00007F80
FF00007F80
FF00007F80
FF00007F80
FF00007F80
FF00007F80
FF00007F80
ENDCHAR
STARTCHAR o
ENCODING 111
SWIDTH 500 0
DWIDTH 40 0
BBX 39 43 8 -1
BITMAP
0000FE0000
000FFFE000
003FFFF800
00FFFFFE00
01FFFFFF00
03FFFFFF80
07FFFFFFC0
0FFFFFFFE0
1FFF01FFF0
1FFC007FF0
3FF0001FF8
3FE0000FF8
7FE0000FFC
7FC00007FC
7F800003FC
FF800003FE
FF800003FE
FF000001FE
FF000001FE
FF000001FE
FF000001FE
FF000001FE
FF000001FE
FF000001FE
FF000001FE
FF000001FE
FF800003FE
FF800003FE
7F800003FC
7FC00007FC
7FC00007FC
3FE0000FF8
3FE0000FF8
1FF0001FF0
1FFC007FF0
0FFF01FFE0
07FFFFFFC0
03FFFFFF80
01FFFFFF00
00FFFFFE00
007FFFFC00
001FFFF000
0001FF0000
ENDCHAR
STARTCHAR p
ENCODING 112
SWIDTH 550 0
DWIDTH 44 0
BBX 39 57 8 -15
BITMAP
0001FF0000
FF0FFFF000
FF3FFFFC00
FF7FFFFE00
FFFFFFFF00
FFFFFFFF80
FFFFFFFFC0
FFFC01FFE0
FFF0007FF0
FFC0001FF0
FF80000FF8
FF00000FF8
FF000007FC
FF000007FC
FF000003FC
FF000003FE
FF000003FE
FF000001FE
FF000001FE
FF000001FE
FF000001FE
FF000001FE
FF000001FE
FF000001FE
FF000001FE
FF000001FE
FF000003FE
FF000003FE
FF000003FC
FF000007FC
FF00000FFC
FF80000FF8
FFC0001FF8
FFF0007FF0
FFFC01FFF0
FFFFFFFFE0
FFFFFFFFC0
FFFFFFFF80
FFFFFFFF00
FF7FFFFE00
FF1FFFF800
FF07FFE000
FF00FE0000
FF00000000
FF00000000
FF00000000
FF00000000
FF00000000
FF00000000
FF00000000
FF00000000
FF00000000
FF00000000
FF00000000
FF00000000
FF00000000
FF00000000
ENDCHAR
STARTCHAR q
ENCODING 113
SWIDTH 550 0
DWIDTH 44 0
BBX 39 57 8 -15
BITMAP
0001FF0000
001FFFE1FE
007FFFF9FE
00FFFFFDFE
01FFFFFFFE
03FFFFFFFE
07FFFFFFFE
0FFF007FFE
1FFC001FFE
1FF00007FE
3FE00003FE
3FE00001FE
7FC00001FE
7FC00001FE
7F800001FE
FF800001FE
FF800001FE
FF000001FE
FF000001FE
FF000001FE
FF000001FE
FF000001FE
FF000001FE
FF000001FE
FF000001FE
FF000001FE
FF800001FE
FF800001FE
7F800001FE
7FC00001FE
7FE00001FE
3FE00003FE
3FF00007FE
1FFC001FFE
1FFF007FFE
0FFFFFFFFE
07FFFFFFFE
03FFFFFFFE
01FFFFFFFE
00FFFFFDFE
003FFFF1FE
000FFFC1FE
0000FE01FE
00000001FE
00000001FE
00000001FE
00000001FE
00000001FE
00000001FE
00000001FE
00000001FE
00000001FE
00000001FE
00000001FE
00000001FE
00000001FE
00000001FE
ENDCHAR
STARTCHAR r
ENCODING 114
SWIDTH 450 0
DWIDTH 36 0
BBX 29 42 8 0
BITMAP
00007E00
FF03FFC0
FF0FFFF0
FF3FFFF8
FF7FFFF0
FFFFFFE0
FFFFFFC0
FFFFFF80
FFFC0F00
FFF00200
FFC00000
FF800000
FF000000
FF000000
FF000000
FF000000
FF000000
FF000000
FF000000
FF000000
FF000000
FF000000
FF000000
FF000000
FF000000
FF000000
FF000000
FF000000
FF000000
FF000000
FF000000
FF000000
FF000000
FF000000
FF000000
FF000000
FF000000
FF000000
FF000000
FF000000
FF000000
FF000000
ENDCHAR
STARTCHAR s
ENCODING 115
SWIDTH 500 0
DWIDTH 40 0
BBX 32 43 4 -1
BITMAP
0007F000
003FFE00
007FFF80
01FFFFE0
03FFFFF0
03FFFFF8
07FFFFFC
07FC0FF8
0FF803F0
0FF001E0
0FF00080
0FF00000
0FF80000
07FC0000
07FE0000
03FF8000
03FFE000
01FFF800
007FFE00
003FFF80
000FFFE0
0003FFF0
0000FFF8
00003FFC
00000FFE
000003FE
000001FF
000000FF
000000FF
080000FF
1C0000FF
3E0000FF
7F0001FF
FF8001FE
FFE007FE
7FF81FFC
3FFFFFFC
1FFFFFF8
0FFFFFF0
07FFFFE0
01FFFF80
007FFE00
000FE000
ENDCHAR
STARTCHAR t
ENCODING 116
SWIDTH 450 0
DWIDTH 36 0
BBX 33 55 4 -1
BITMAP
0003000000
000F000000
003F000000
00FF000000
00FF000000
00FF000000
00FF000000
00FF000000
00FF000000
00FF000000
00FF000000
00FF000000
00FF000000
FFFFFFF000
FFFFFFF000
FFFFFFF000
FFFFFFF000
FFFFFFF000
FFFFFFF000
FFFFFFF000
FFFFFFF000
00FF000000
00FF000000
00FF000000
00FF000000
00FF000000
00FF000000
00FF000000
00FF000000
00FF000000
00FF000000
00FF000000
00FF000000
00FF000000
00FF000000
00FF000000
00FF000000
00FF000000
00FF000000
00FF000000
00FF000000
00FF000000
00FF000000
00FF800000
007F800000
007FC00180
007FF00F80
003FFFFF80
003FFFFF80
001FFFFF80
000FFFFF80
0007FFFF80
0003FFFF00
0000FFFC00
00001FE000
ENDCHAR
STARTCHAR u
ENCODING 117
SWIDTH 500 0
DWIDTH 40 0
BBX 32 42 8 -1
BITMAP
FF0000FF
FF0000FF
FF0000FF
FF0000FF
FF0000FF
FF0000FF
FF0000FF
FF0000FF
FF0000FF
FF0000FF
FF0000FF
FF0000FF
FF0000FF
FF0000FF
FF0000FF
FF0000FF
FF0000FF
FF0000FF
FF0000FF
FF0000FF
FF0000FF
FF0000FF
FF0000FF
FF0000FF
FF0000FF
FF0000FF
FF0000FF
FF0000FF
FF0000FF
FF0000FF
FF8001FF
FF8001FF
7FC007FF
7FF01FFF
7FFFFFFF
3FFFFFFF
3FFFFFFF
1FFFFFFF
0FFFFEFF
07FFF8FF
01FFE0FF
007F0000
ENDCHAR
STARTCHAR v
ENCODING 118
SWIDTH 500 0
DWIDTH 40 0
BBX 44 42 0 -1
BITMAP
FF8000000FF0
7F8000001FE0
7FC000001FE0
3FC000003FC0
3FE000003FC0
1FE000007F80
1FF000007F80
0FF00000FF00
0FF80000FF00
07F80001FE00
07FC0001FE00
03FC0003FC00
03FE0003FC00
01FE0007F800
01FF0007F800
00FF000FF000
00FF800FF000
007F801FE000
007FC01FE000
003FC03FC000
003FE03FC000
001FE07F8000
001FF07F8000
000FF0FF0000
000FF8FF0000
0007F9FE0000
0007FDFE0000
0003FFFC0000
0003FFFC0000
0001FFF80000
0001FFF80000
0000FFF00000
0000FFF00000
00007FE00000
00007FE00000
00003FC00000
00003FC00000
00001F800000
00001F800000
00000F000000
00000F000000
000006000000
ENDCHAR
STARTCHAR w
ENCODING 119
SWIDTH 750 0
DWIDTH 60 0
BBX 61 41 1 0
BITMAP
FF000000000007F8
7F80000000000FF0
7F80000000000FF0
7F80000F80000FF0
3FC0000F80001FE0
3FC0000F80001FE0
3FC0001FC0001FE0
1FE0001FC0003FC0
1FE0001FC0003FC0
1FE0003FE0003FC0
0FF0003FE0007F80
0FF0003FE0007F80
0FF0003FE0007F80
07F8007FF000FF00
07F8007FF000FF00
07F8007FF000FF00
03FC00FFF801FE00
03FC00FFF801FE00
03FC00FFF801FE00
01FE01FFFC03FC00
01FE01FDFC03FC00
01FE01FDFC03FC00
00FF03F8FE07F800
00FF03F8FE07F800
00FF03F8FE07F800
007F87F07F0FF000
007F87F07F0FF000
007F87E03F0FF000
003FCFE03F9FE000
003FCFE03F9FE000
003FCFC01F9FE000
001FFFC01FFFC000
001FFFC01FFFC000
001FFF800FFFC000
000FFF800FFF8000
000FFF800FFF8000
000FFF0007FF8000
0007FF0007FF0000
0007FF0007FF0000
0007FE0003FF0000
0003FE0003FE0000
ENDCHAR
STARTCHAR x
ENCODING 120
SWIDTH 500 0
DWIDTH 40 0
BBX 38 41 3 0
BITMAP
7FE0000FF8
7FE0000FF0
3FF0001FF0
1FF8003FE0
0FF8003FC0
0FFC007FC0
07FE00FF80
03FE00FF00
01FF01FF00
01FF83FE00
00FF83FC00
007FC7FC00
007FEFF800
003FFFF000
001FFFF000
001FFFE000
000FFFC000
0007FFC000
0003FF8000
0007FF0000
0007FF8000
000FFFC000
000FFFC000
001FFFE000
003FFFF000
003FFFF000
007FCFF800
00FF87FC00
00FF87FC00
01FF03FE00
03FE01FF00
03FE01FF00
07FC00FF80
0FF8007FC0
0FF8007FC0
1FF0003FE0
3FE0001FF0
3FE0001FF0
7FC0000FF8
FF800007FC
FF800007FC
ENDCHAR
STARTCHAR y
ENCODING 121
SWIDTH 500 0
DWIDTH 40 0
BBX 44 57 2 -16
BITMAP
FF0000000FF0
7F8000001FE0
7F8000001FE0
3FC000001FC0
3FC000003FC0
1FE000003FC0
1FE000007F80
0FF000007F80
0FF000007F00
07F80000FF00
07F80000FF00
03FC0001FE00
03FC0001FE00
01FE0001FC00
01FE0003FC00
00FF0003FC00
00FF0007F800
007F8007F800
007F8007F000
003FC00FF000
003FC00FF000
001FE01FE000
001FE01FE000
000FF01FC000
000FF03FC000
0007F83FC000
0007F87F8000
0003FC7F8000
0003FC7F0000
0001FEFF0000
0001FEFF0000
0000FFFE0000
0000FFFE0000
00007FFC0000
00007FFC0000
00003FFC0000
00003FF80000
00001FF80000
00001FF00000
00000FF00000
00001FF00000
00001FE00000
00001FE00000
00003FC00000
00003FC00000
00007F800000
00007F800000
0000FF800000
0000FF000000
0001FF000000
0001FE000000
0003FE000000
0003FC000000
0007FC000000
0007FC000000
000FF8000000
000FF8000000
ENDCHAR
STARTCHAR z
ENCODING 122
SWIDTH 500 0
DWIDTH 40 0
BBX 36 41 5 0
BITMAP
1FFFFFFFC0
1FFFFFFF80
1FFFFFFF80
1FFFFFFF00
1FFFFFFF00
1FFFFFFE00
1FFFFFFC00
1FFFFFFC00
000007F800
00000FF000
00001FF000
00001FE000
00003FC000
00007FC000
00007F8000
0000FF0000
0001FF0000
0001FE0000
0003FC0000
0007FC0000
0007F80000
000FF00000
001FF00000
001FE00000
003FC00000
007FC00000
007F800000
00FF000000
01FF000000
01FE000000
03FC000000
07FC000000
07F8000000
0FFFFFFFF0
1FFFFFFFF0
1FFFFFFFF0
3FFFFFFFF0
7FFFFFFFF0
7FFFFFFFF0
FFFFFFFFF0
FFFFFFFFF0
ENDCHAR
STARTCHAR braceleft
ENCODING 123
SWIDTH 400 0
DWIDTH 32 0
BBX 24 72 4 -12
BITMAP
0003F8
000FFE
001FFF
003FC0
007F80
007F00
00FF00
00FF00
00FF00
00FF00
00FF00
00FF00
00FF00
00FF00
00FF00
00FF00
00FF00
00FF00
00FF00
00FF00
00FF00
00FF00
00FF00
00FF00
00FF00
00FF00
00FF00
00FF00
00FE00
01FE00
01FC00
03F800
0FC000
FE0000
FE0000
0FC000
03F800
01FC00
01FE00
00FE00
00FF00
00FF00
00FF00
00FF00
00FF00
00FF00
00FF00
00FF00
00FF00
00FF00
00FF00
00FF00
00FF00
00FF00
00FF00
00FF00
00FF00
00FF00
00FF00
00FF00
00FF00
00FF00
00FF00
00FF00
00FF00
00FF00
007F00
007F80
003FC0
001FFF
000FFE
0003F8
ENDCHAR
STARTCHAR bar
ENCODING 124
SWIDTH 400 0
DWIDTH 32 0
BBX 8 72 12 -12
BITMAP
FF
FF
FF
FF
FF
FF
FF
FF
FF
FF
FF
FF
FF
FF
FF
FF
FF
FF
FF
FF
FF
FF
FF
FF
FF
FF
FF
FF
FF
FF
FF
FF
FF
FF
FF
FF
FF
FF
FF
FF
FF
FF
FF
FF
FF
FF
FF
FF
FF
FF
FF
FF
FF
FF
FF
FF
FF
FF
FF
FF
FF
FF
FF
FF
FF
FF
FF
FF
FF
FF
FF
FF
ENDCHAR
STARTCHAR braceright
ENCODING 125
SWIDTH 400 0
DWIDTH 32 0
BBX 24 72 4 -12
BITMAP
1FC000
7FF000
FFF800
03FC00
01FE00
00FE00
00FF00
00FF00
00FF00
00FF00
00FF00
00FF00
00FF00
00FF00
00FF00
00FF00
00FF00
00FF00
00FF00
00FF00
00FF00
00FF00
00FF00
00FF00
00FF00
00FF00
00FF00
00FF00
007F00
007F80
003F80
001FC0
0003F0
00007F
00007F
0003F0
001FC0
003F80
007F80
007F00
00FF00
00FF00
00FF00
00FF00
00FF00
00FF00
00FF00
00FF00
00FF00
00FF00
00FF00
00FF00
00FF00
00FF00
00FF00
00FF00
00FF00
00FF00
00FF00
00FF00
00FF00
00FF00
00FF00
00FF00
00FF00
00FF00
00FE00
01FE00
03FC00
FFF800
7FF000
1FC000
ENDCHAR
STARTCHAR Euro
ENCODING 164
SWIDTH 700 0
DWIDTH 56 0
BBX 52 58 0 -1
BITMAP
00000001FF8000
0000001FFFF000
000000FFFFFE00
000003FFFFFF00
000007FFFFFFC0
00001FFFFFFFE0
00003FFFFFFFF0
00007FFFE7FFE0
0000FFFE007FC0
0001FFE0001F80
0003FFC0000700
0007FF00000200
0007FE00000000
000FFC00000000
001FF800000000
001FF000000000
003FF000000000
003FE000000000
003FE000000000
007FC000000000
007FC000000000
7FFFFFFFFFF800
7FFFFFFFFFF800
FFFFFFFFFFF000
FFFFFFFFFFF000
00FF0000000000
00FF0000000000
00FF0000000000
00FF0000000000
7FFFFFFFF80000
7FFFFFFFF80000
FFFFFFFFF00000
FFFFFFFFF00000
00FF0000000000
00FF8000000000
00FF8000000000
007F8000000000
007FC000000000
007FC000000000
003FE000000000
003FE000000000
003FF000000000
001FF000000000
001FF800000000
000FFC00000000
000FFE00000000
0007FF00000200
0003FFC0000700
0001FFE0001F80
0000FFFE007FC0
00007FFFE7FFE0
00003FFFFFFFF0
00001FFFFFFFE0
000007FFFFFFC0
000003FFFFFF00
000000FFFFFE00
0000001FFFF000
00000001FF8000
ENDCHAR
STARTCHAR degree
ENCODING 176
SWIDTH 400 0
DWIDTH 32 0
BBX 23 22 4 35
BITMAP
00FE00
03FF80
0FFFE0
1FFFF0
3F83F8
7F01FC
7F01FC
FE00FE
FE00FE
FE00FE
FE00FE
FE00FE
FE00FE
FE00FE
FE00FE
7F01FC
7F01FC
3F83F8
1FFFF0
0FFFE0
03FF80
00FE00
ENDCHAR
STARTCHAR Agrave
ENCODING 192
SWIDTH 650 0
DWIDTH 52 0
BBX 49 72 4 0
BITMAP
000FFC00000000
0007FC00000000
0003FE00000000
0001FE00000000
0000FF00000000
00007F00000000
00003F80000000
00001F80000000
00000FC0000000
000007C0000000
000003E0000000
000001E0000000
00000000000000
00000000000000
00000000000000
00000000000000
00000FF8000000
00001FFC000000
00001FFC000000
00001FFC000000
00003FFE000000
00003FFE000000
00003FFE000000
00007FFF000000
00007FFF000000
0000FFFF000000
0000FF7F800000
0000FF7F800000
0001FF7FC00000
0001FE3FC00000
0001FE3FC00000
0003FC1FE00000
0003FC1FE00000
0003FC1FE00000
0007F80FF00000
0007F80FF00000
000FF80FF80000
000FF007F80000
000FF007F80000
001FF007FC0000
001FE003FC0000
001FE003FC0000
003FC001FE0000
003FC001FE0000
007FC001FE0000
007F8000FF0000
007F8000FF0000
00FF8000FF8000
00FF00007F8000
00FF00007F8000
01FF00007FC000
01FE00003FC000
01FFFFFFFFC000
03FFFFFFFFE000
03FFFFFFFFE000
07FFFFFFFFF000
07FFFFFFFFF000
07FFFFFFFFF000
0FFFFFFFFFF800
0FFFFFFFFFF800
0FF0000007F800
1FF0000007FC00
1FE0000003FC00
3FE0000003FC00
3FE0000003FE00
3FC0000001FE00
7FC0000001FF00
7FC0000001FF00
7F80000000FF00
FF80000000FF80
FF00000000FF80
FF000000007F80
ENDCHAR
STARTCHAR Acircumflex
ENCODING 194
SWIDTH 650 0
DWIDTH 52 0
BBX 49 72 4 0
BITMAP
000007C0000000
00000FE0000000
00001FF0000000
00003FF8000000
00007FFC000000
0000FFFE000000
0001FEFF000000
0003FC7F800000
0007F83FC00000
000FF01FE00000
000FE00FE00000
00000000000000
00000000000000
00000000000000
00000000000000
00000000000000
00000FF8000000
00001FFC000000
00001FFC000000
00001FFC000000
00003FFE000000
00003FFE000000
00003FFE000000
00007FFF000000
00007FFF000000
0000FFFF000000
0000FF7F800000
0000FF7F800000
0001FF7FC00000
0001FE3FC00000
0001FE3FC00000
0003FC1FE00000
0003FC1FE00000
0003FC1FE00000
0007F80FF00000
0007F80FF00000
000FF80FF80000
000FF007F80000
000FF007F80000
001FF007FC0000
001FE003FC0000
001FE003FC0000
003FC001FE0000
003FC001FE0000
007FC001FE0000
007F8000FF0000
007F8000FF0000
00FF8000FF8000
00FF00007F8000
00FF00007F8000
01FF00007FC000
01FE00003FC000
01FFFFFFFFC000
03FFFFFFFFE000
03FFFFFFFFE000
07FFFFFFFFF000
07FFFFFFFFF000
07FFFFFFFFF000
0FFFFFFFFFF800
0FFFFFFFFFF800
0FF0000007F800
1FF0000007FC00
1FE0000003FC00
3FE0000003FC00
3FE0000003FE00
3FC0000001FE00
7FC0000001FF00
7FC0000001FF00
7F80000000FF00
FF80000000FF80
FF00000000FF80
FF000000007F80
ENDCHAR
STARTCHAR Ccedilla
ENCODING 199
SWIDTH 650 0
DWIDTH 52 0
BBX 44 73 8 -16
BITMAP
000001FF8000
00001FFFF000
0000FFFFFE00
0003FFFFFF00
0007FFFFFFC0
001FFFFFFFE0
003FFFFFFFF0
007FFFE7FFE0
00FFFE007FC0
01FFE0001F80
03FFC0000700
07FF00000200
07FE00000000
0FFC00000000
1FF800000000
1FF000000000
3FF000000000
3FE000000000
3FE000000000
7FC000000000
7FC000000000
7F8000000000
FF8000000000
FF8000000000
FF0000000000
FF0000000000
FF0000000000
FF0000000000
FF0000000000
FF0000000000
FF0000000000
FF0000000000
FF0000000000
FF0000000000
FF8000000000
FF8000000000
7F8000000000
7FC000000000
7FC000000000
3FE000000000
3FE000000000
3FF000000000
1FF000000000
1FF800000000
0FFC00000000
0FFE00000000
07FF00000200
03FFC0000700
01FFE0001F80
00FFFE007FC0
007FFFE7FFE0
003FFFFFFFF0
001FFFFFFFE0
0007FFFFFFC0
0003FFFFFF00
0000FFFFFE00
00001FFFE000
00000FFF0000
00000FFF8000
00001FFFE000
00001FFFF000
00000007F800
00000001F800
00000000FC00
00000000FC00
00000000FC00
00000001FC00
00000003FC00
00003FFFF800
00003FFFF800
00003FFFF000
00003FFFE000
00003FFF8000
ENDCHAR
STARTCHAR Egrave
ENCODING 200
SWIDTH 550 0
DWIDTH 44 0
BBX 36 72 8 0
BITMAP
0FFC000000
07FC000000
03FE000000
01FE000000
00FF000000
007F000000
003F800000
001F800000
000FC00000
0007C00000
0003E00000
0001E00000
0000000000
0000000000
0000000000
0000000000
FFFFFFFF00
FFFFFFFF00
FFFFFFFF00
FFFFFFFF00
FFFFFFFF00
FFFFFFFF00
FFFFFFFF00
FFFFFFFF00
FF00000000
FF00000000
FF00000000
FF00000000
FF00000000
FF00000000
FF00000000
FF00000000
FF00000000
FF00000000
FF00000000
FF00000000
FF00000000
FF00000000
FF00000000
FF00000000
FFFFFFF000
FFFFFFF000
FFFFFFF000
FFFFFFF000
FFFFFFF000
FFFFFFF000
FFFFFFF000
FFFFFFF000
FF00000000
FF00000000
FF00000000
FF00000000
FF00000000
FF00000000
FF00000000
FF00000000
FF00000000
FF00000000
FF00000000
FF00000000
FF00000000
FF00000000
FF00000000
FF00000000
FFFFFFFFF0
FFFFFFFFF0
FFFFFFFFF0
FFFFFFFFF0
FFFFFFFFF0
FFFFFFFFF0
FFFFFFFFF0
FFFFFFFFF0
ENDCHAR
STARTCHAR Eacute
ENCODING 201
SWIDTH 550 0
DWIDTH 44 0
BBX 36 72 8 0
BITMAP
00007FE000
00007FC000
0000FF8000
0000FF0000
0001FE0000
0001FC0000
0003F80000
0003F00000
0007E00000
0007C00000
000F800000
000F000000
0000000000
0000000000
0000000000
0000000000
FFFFFFFF00
FFFFFFFF00
FFFFFFFF00
FFFFFFFF00
FFFFFFFF00
FFFFFFFF00
FFFFFFFF00
FFFFFFFF00
FF00000000
FF00000000
FF00000000
FF00000000
FF00000000
FF00000000
FF00000000
FF00000000
FF00000000
FF00000000
FF00000000
FF00000000
FF00000000
FF00000000
FF00000000
FF00000000
FFFFFFF000
FFFFFFF000
FFFFFFF000
FFFFFFF000
FFFFFFF000
FFFFFFF000
FFFFFFF000
FFFFFFF000
FF00000000
FF00000000
FF00000000
FF00000000
FF00000000
FF00000000
FF00000000
FF00000000
FF00000000
FF00000000
FF00000000
FF00000000
FF00000000
FF00000000
FF00000000
FF00000000
FFFFFFFFF0
FFFFFFFFF0
FFFFFFFFF0
FFFFFFFFF0
FFFFFFFFF0
FFFFFFFFF0
FFFFFFFFF0
FFFFFFFFF0
ENDCHAR
STARTCHAR Ecircumflex
ENCODING 202
SWIDTH 550 0
DWIDTH 44 0
BBX 36 72 8 0
BITMAP
0003E00000
0007F00000
000FF80000
001FFC0000
003FFE0000
007FFF0000
00FF7F8000
01FE3FC000
03FC1FE000
07F80FF000
07F007F000
0000000000
0000000000
0000000000
0000000000
0000000000
FFFFFFFF00
FFFFFFFF00
FFFFFFFF00
FFFFFFFF00
FFFFFFFF00
FFFFFFFF00
FFFFFFFF00
FFFFFFFF00
FF00000000
FF00000000
FF00000000
FF00000000
FF00000000
FF00000000
FF00000000
FF00000000
FF00000000
FF00000000
FF00000000
FF00000000
FF00000000
FF00000000
FF00000000
FF00000000
FFFFFFF000
FFFFFFF000
FFFFFFF000
FFFFFFF000
FFFFFFF000
FFFFFFF000
FFFFFFF000
FFFFFFF000
FF00000000
FF00000000
FF00000000
FF00000000
FF00000000
FF00000000
FF00000000
FF00000000
FF00000000
FF00000000
FF00000000
FF00000000
FF00000000
FF00000000
FF00000000
FF00000000
FFFFFFFFF0
FFFFFFFFF0
FFFFFFFFF0
FFFFFFFFF0
FFFFFFFFF0
FFFFFFFFF0
FFFFFFFFF0
FFFFFFFFF0
ENDCHAR
STARTCHAR Edieresis
ENCODING 203
SWIDTH 550 0
DWIDTH 44 0
BBX 36 72 8 0
BITMAP
07C007C000
0FE00FE000
1FF01FF000
1FF01FF000
1FF01FF000
1FF01FF000
0FE00FE000
07C007C000
0000000000
0000000000
0000000000
0000000000
0000000000
0000000000
0000000000
0000000000
FFFFFFFF00
FFFFFFFF00
FFFFFFFF00
FFFFFFFF00
FFFFFFFF00
FFFFFFFF00
FFFFFFFF00
FFFFFFFF00
FF00000000
FF00000000
FF00000000
FF00000000
FF00000000
FF00000000
FF00000000
FF00000000
FF00000000
FF00000000
FF00000000
FF00000000
FF00000000
FF00000000
FF00000000
FF00000000
FFFFFFF000
FFFFFFF000
FFFFFFF000
FFFFFFF000
FFFFFFF000
FFFFFFF000
FFFFFFF000
FFFFFFF000
FF00000000
FF00000000
FF00000000
FF00000000
FF00000000
FF00000000
FF00000000
FF00000000
FF00000000
FF00000000
FF00000000
FF00000000
FF00000000
FF00000000
FF00000000
FF00000000
FFFFFFFFF0
FFFFFFFFF0
FFFFFFFFF0
FFFFFFFFF0
FFFFFFFFF0
FFFFFFFFF0
FFFFFFFFF0
FFFFFFFFF0
ENDCHAR
STARTCHAR Icircumflex
ENCODING 206
SWIDTH 400 0
DWIDTH 32 0
BBX 23 72 5 0
BITMAP
007C00
00FE00
01FF00
03FF80
07FFC0
0FFFE0
1FEFF0
3FC7F8
7F83FC
FF01FE
FE00FE
000000
000000
000000
000000
000000
01FE00
01FE00
01FE00
01FE00
01FE00
01FE00
01FE00
01FE00
01FE00
01FE00
01FE00
01FE00
01FE00
01FE00
01FE00
01FE00
01FE00
01FE00
01FE00
01FE00
01FE00
01FE00
01FE00
01FE00
01FE00
01FE00
01FE00
01FE00
01FE00
01FE00
01FE00
01FE00
01FE00
01FE00
01FE00
01FE00
01FE00
01FE00
01FE00
01FE00
01FE00
01FE00
01FE00
01FE00
01FE00
01FE00
01FE00
01FE00
01FE00
01FE00
01FE00
01FE00
01FE00
01FE00
01FE00
01FE00
ENDCHAR
STARTCHAR Idieresis
ENCODING 207
SWIDTH 400 0
DWIDTH 32 0
BBX 25 72 4 0
BITMAP
3E003E00
7F007F00
FF80FF80
FF80FF80
FF80FF80
FF80FF80
7F007F00
3E003E00
00000000
00000000
00000000
00000000
00000000
00000000
00000000
00000000
00FF0000
00FF0000
00FF0000
00FF0000
00FF0000
00FF0000
00FF0000
00FF0000
00FF0000
00FF0000
00FF0000
00FF0000
00FF0000
00FF0000
00FF0000
00FF0000
00FF0000
00FF0000
00FF0000
00FF0000
00FF0000
00FF0000
00FF0000
00FF0000
00FF0000
00FF0000
00FF0000
00FF0000
00FF0000
00FF0000
00FF0000
00FF0000
00FF0000
00FF0000
00FF0000
00FF0000
00FF0000
00FF0000
00FF0000
00FF0000
00FF0000
00FF0000
00FF0000
00FF0000
00FF0000
00FF0000
00FF0000
00FF0000
00FF0000
00FF0000
00FF0000
00FF0000
00FF0000
00FF0000
00FF0000
00FF0000
ENDCHAR
STARTCHAR Ocircumflex
ENCODING 212
SWIDTH 750 0
DWIDTH 60 0
BBX 56 73 7 -1
BITMAP
0000003E000000
0000007F000000
000000FF800000
000001FFC00000
000003FFE00000
000007FFF00000
00000FF7F80000
00001FE3FC0000
00003FC1FE0000
00007F80FF0000
00007F007F0000
00000000000000
00000000000000
00000000000000
00000000000000
000001FF800000
00001FFFF00000
0000FFFFFE0000
0003FFFFFF8000
0007FFFFFFE000
001FFFFFFFF000
003FFFFFFFFC00
007FFFE7FFFE00
00FFFE007FFF00
01FFE00007FF80
03FFC00003FFC0
07FF000000FFE0
07FE0000007FF0
0FFC0000003FF0
1FF80000001FF8
1FF00000000FF8
3FF00000000FFC
3FE000000007FC
3FE000000007FC
7FC000000003FE
7FC000000003FE
7F8000000001FE
FF8000000001FF
FF8000000001FF
FF0000000000FF
FF0000000000FF
FF0000000000FF
FF0000000000FF
FF0000000000FF
FF0000000000FF
FF0000000000FF
FF0000000000FF
FF0000000000FF
FF0000000000FF
FF8000000001FF
FF8000000001FF
7F8000000001FE
7FC000000003FE
7FC000000003FE
3FE000000007FC
3FE000000007FC
3FF00000000FFC
1FF00000000FF8
1FF80000001FF8
0FFC0000003FF0
07FE0000007FE0
07FF000000FFE0
03FFC00003FFC0
01FFF0000FFF80
00FFFE007FFF00
007FFFE7FFFE00
003FFFFFFFFC00
000FFFFFFFF000
0007FFFFFFE000
0001FFFFFF8000
00007FFFFE0000
00000FFFF00000
000001FF800000
ENDCHAR
STARTCHAR Ugrave
ENCODING 217
SWIDTH 650 0
DWIDTH 52 0
BBX 40 73 8 -1
BITMAP
00FFC00000
007FC00000
003FE00000
001FE00000
000FF00000
0007F00000
0003F80000
0001F80000
0000FC0000
00007C0000
00003E0000
00001E0000
0000000000
0000000000
0000000000
0000000000
FF000000FF
FF000000FF
FF000000FF
FF000000FF
FF000000FF
FF000000FF
FF000000FF
FF000000FF
FF000000FF
FF000000FF
FF000000FF
FF000000FF
FF000000FF
FF000000FF
FF000000FF
FF000000FF
FF000000FF
FF000000FF
FF000000FF
FF000000FF
FF000000FF
FF000000FF
FF000000FF
FF000000FF
FF000000FF
FF000000FF
FF000000FF
FF000000FF
FF000000FF
FF000000FF
FF000000FF
FF000000FF
FF000000FF
FF000000FF
FF000000FF
FF000000FF
FF000000FF
FF000000FF
FF000000FF
FF000000FF
FF000000FF
FF000000FF
FF000000FF
FF800001FF
7F800001FE
7FC00003FE
7FE00007FE
3FF0000FFC
3FFC003FFC
1FFF01FFF8
0FFFFFFFF0
07FFFFFFE0
03FFFFFFC0
01FFFFFF00
007FFFFE00
001FFFF000
0003FF8000
ENDCHAR
STARTCHAR Ucircumflex
ENCODING 219
SWIDTH 650 0
DWIDTH 52 0
BBX 40 73 8 -1
BITMAP
00003E0000
00007F0000
0000FF8000
0001FFC000
0003FFE000
0007FFF000
000FF7F800
001FE3FC00
003FC1FE00
007F80FF00
007F007F00
0000000000
0000000000
0000000000
0000000000
0000000000
FF000000FF
FF000000FF
FF000000FF
FF000000FF
FF000000FF
FF000000FF
FF000000FF
FF000000FF
FF000000FF
FF000000FF
FF000000FF
FF000000FF
FF000000FF
FF000000FF
FF000000FF
FF000000FF
FF000000FF
FF000000FF
FF000000FF
FF000000FF
FF000000FF
FF000000FF
FF000000FF
FF000000FF
FF000000FF
FF000000FF
FF000000FF
FF000000FF
FF000000FF
FF000000FF
FF000000FF
FF000000FF
FF000000FF
FF000000FF
FF000000FF
FF000000FF
FF000000FF
FF000000FF
FF000000FF
FF000000FF
FF000000FF
FF000000FF
FF000000FF
FF800001FF
7F800001FE
7FC00003FE
7FE00007FE
3FF0000FFC
3FFC003FFC
1FFF01FFF8
0FFFFFFFF0
07FFFFFFE0
03FFFFFFC0
01FFFFFF00
007FFFFE00
001FFFF000
0003FF8000
ENDCHAR
STARTCHAR Udieresis
ENCODING 220
SWIDTH 650 0
DWIDTH 52 0
BBX 40 73 8 -1
BITMAP
003E003E00
007F007F00
00FF80FF80
00FF80FF80
00FF80FF80
00FF80FF80
007F007F00
003E003E00
0000000000
0000000000
0000000000
0000000000
0000000000
0000000000
0000000000
0000000000
FF000000FF
FF000000FF
FF000000FF
FF000000FF
FF000000FF
FF000000FF
FF000000FF
FF000000FF
FF000000FF
FF000000FF
FF000000FF
FF000000FF
FF000000FF
FF000000FF
FF000000FF
FF000000FF
FF000000FF
FF000000FF
FF000000FF
FF000000FF
FF000000FF
FF000000FF
FF000000FF
FF000000FF
FF000000FF
FF000000FF
FF000000FF
FF000000FF
FF000000FF
FF000000FF
FF000000FF
FF000000FF
FF000000FF
FF000000FF
FF000000FF
FF000000FF
FF000000FF
FF000000FF
FF000000FF
FF000000FF
FF000000FF
FF000000FF
FF000000FF
FF800001FF
7F800001FE
7FC00003FE
7FE00007FE
3FF0000FFC
3FFC003FFC
1FFF01FFF8
0FFFFFFFF0
07FFFFFFE0
03FFFFFFC0
01FFFFFF00
007FFFFE00
001FFFF000
0003FF8000
ENDCHAR
STARTCHAR agrave
ENCODING 224
SWIDTH 500 0
DWIDTH 40 0
BBX 33 58 7 -1
BITMAP
07FE000000
03FE000000
01FF000000
00FF000000
007F800000
003F800000
001FC00000
000FC00000
0007E00000
0003E00000
0001F00000
0000F00000
0000000000
0000000000
0000000000
001FFE0000
00FFFFC000
07FFFFF000
07FFFFF800
07FFFFFE00
07FFFFFE00
07FE0FFF00
07E001FF00
070000FF00
0400007F80
0000007F80
0000007F80
0000007F80
0000007F80
000007FF80
00007FFF80
0007FFFF80
003FFFFF80
00FFFFFF80
03FFFFFF80
07FFFC7F80
0FFFE07F80
1FFF007F80
3FFC007F80
3FF0007F80
7FE0007F80
7FC0007F80
FFC0007F80
FF80007F80
FF80007F80
FF80007F80
FF80007F80
FFC000FF80
FFC001FF80
FFE007FF80
7FF83FFF80
7FFFFFFF80
3FFFFFFF80
1FFFFF7F80
0FFFFE7F80
03FFF87F80
01FFF07F80
003F800000
ENDCHAR
STARTCHAR acircumflex
ENCODING 226
SWIDTH 500 0
DWIDTH 40 0
BBX 33 58 7 -1
BITMAP
0001F00000
0003F80000
0007FC0000
000FFE0000
001FFF0000
003FFF8000
007FBFC000
00FF1FE000
01FE0FF000
03FC07F800
03F803F800
0000000000
0000000000
0000000000
0000000000
001FFE0000
00FFFFC000
07FFFFF000
07FFFFF800
07FFFFFE00
07FFFFFE00
07FE0FFF00
07E001FF00
070000FF00
0400007F80
0000007F80
0000007F80
0000007F80
0000007F80
000007FF80
00007FFF80
0007FFFF80
003FFFFF80
00FFFFFF80
03FFFFFF80
07FFFC7F80
0FFFE07F80
1FFF007F80
3FFC007F80
3FF0007F80
7FE0007F80
7FC0007F80
FFC0007F80
FF80007F80
FF80007F80
FF80007F80
FF80007F80
FFC000FF80
FFC001FF80
FFE007FF80
7FF83FFF80
7FFFFFFF80
3FFFFFFF80
1FFFFF7F80
0FFFFE7F80
03FFF87F80
01FFF07F80
003F800000
ENDCHAR
STARTCHAR ccedilla
ENCODING 231
SWIDTH 450 0
DWIDTH 36 0
BBX 30 57 8 -15
BITMAP
0000FE00
000FFFC0
003FFFF0
00FFFFFC
01FFFFFC
03FFFFFC
07FFFFFC
0FFFFFFC
1FFF007C
1FFC001C
3FF00004
3FE00000
7FE00000
7FC00000
7F800000
FF800000
FF800000
FF000000
FF000000
FF000000
FF000000
FF000000
FF000000
FF000000
FF000000
FF000000
FF800000
FF800000
7F800000
7FC00000
7FC00000
3FE00000
3FE00000
1FF00004
1FFC001C
0FFF007C
07FFFFFC
03FFFFFC
01FFFFFC
00FFFFFC
007FFFF8
001FFFE0
000FFF00
000FFF80
001FFFE0
001FFFF0
000007F8
000001F8
000000FC
000000FC
000001FC
000003FC
003FFFF8
003FFFF8
003FFFF0
003FFFE0
003FFF80
ENDCHAR
STARTCHAR egrave
ENCODING 232
SWIDTH 550 0
DWIDTH 44 0
BBX 38 58 8 -1
BITMAP
01FF800000
00FF800000
007FC00000
003FC00000
001FE00000
000FE00000
0007F00000
0003F00000
0001F80000
0000F80000
00007C0000
00003C0000
0000000000
0000000000
0000000000
0000FE0000
000FFFE000
003FFFF800
00FFFFFE00
01FFFFFF00
03FFFFFF80
07FFFFFFC0
0FFFFFFFE0
1FFF00FFE0
1FFC003FF0
3FF0001FF0
3FE0000FF8
7FE00007F8
7FC00007F8
7F800003FC
FF800003FC
FF80001FFC
FF0000FFFC
FF0007FFFC
FF007FFFFC
FF03FFFFFC
FF3FFFFFF0
FFFFFFFF00
FFFFFFF800
FFFFFF8000
FFFFFC0000
FFFFC00000
FFFE000000
7FE0000000
7F80000000
7FC0000000
3FC0000000
3FE0000060
1FF00001E0
1FFC0007E0
0FFF007FE0
07FFFFFFE0
03FFFFFFE0
01FFFFFFE0
00FFFFFFC0
007FFFFF00
001FFFF800
0001FFC000
ENDCHAR
STARTCHAR eacute
ENCODING 233
SWIDTH 550 0
DWIDTH 44 0
BBX 38 58 8 -1
BITMAP
00000FFC00
00000FF800
00001FF000
00001FE000
00003FC000
00003F8000
00007F0000
00007E0000
0000FC0000
0000F80000
0001F00000
0001E00000
0000000000
0000000000
0000000000
0000FE0000
000FFFE000
003FFFF800
00FFFFFE00
01FFFFFF00
03FFFFFF80
07FFFFFFC0
0FFFFFFFE0
1FFF00FFE0
1FFC003FF0
3FF0001FF0
3FE0000FF8
7FE00007F8
7FC00007F8
7F800003FC
FF800003FC
FF80001FFC
FF0000FFFC
FF0007FFFC
FF007FFFFC
FF03FFFFFC
FF3FFFFFF0
FFFFFFFF00
FFFFFFF800
FFFFFF8000
FFFFFC0000
FFFFC00000
FFFE000000
7FE0000000
7F80000000
7FC0000000
3FC0000000
3FE0000060
1FF00001E0
1FFC0007E0
0FFF007FE0
07FFFFFFE0
03FFFFFFE0
01FFFFFFE0
00FFFFFFC0
007FFFFF00
001FFFF800
0001FFC000
ENDCHAR
STARTCHAR ecircumflex
ENCODING 234
SWIDTH 550 0
DWIDTH 44 0
BBX 38 58 8 -1
BITMAP
00007C0000
0000FE0000
0001FF0000
0003FF8000
0007FFC000
000FFFE000
001FEFF000
003FC7F800
007F83FC00
00FF01FE00
00FE00FE00
0000000000
0000000000
0000000000
0000000000
0000FE0000
000FFFE000
003FFFF800
00FFFFFE00
01FFFFFF00
03FFFFFF80
07FFFFFFC0
0FFFFFFFE0
1FFF00FFE0
1FFC003FF0
3FF0001FF0
3FE0000FF8
7FE00007F8
7FC00007F8
7F800003FC
FF800003FC
FF80001FFC
FF0000FFFC
FF0007FFFC
FF007FFFFC
FF03FFFFFC
FF3FFFFFF0
FFFFFFFF00
FFFFFFF800
FFFFFF8000
FFFFFC0000
FFFFC00000
FFFE000000
7FE0000000
7F80000000
7FC0000000
3FC0000000
3FE0000060
1FF00001E0
1FFC0007E0
0FFF007FE0
07FFFFFFE0
03FFFFFFE0
01FFFFFFE0
00FFFFFFC0
007FFFFF00
001FFFF800
0001FFC000
ENDCHAR
STARTCHAR edieresis
ENCODING 235
SWIDTH 550 0
DWIDTH 44 0
BBX 38 57 8 -1
BITMAP
007C007C00
00FE00FE00
01FF01FF00
01FF01FF00
01FF01FF00
01FF01FF00
00FE00FE00
007C007C00
0000000000
0000000000
0000000000
0000000000
0000000000
0000000000
0000FE0000
000FFFE000
003FFFF800
00FFFFFE00
01FFFFFF00
03FFFFFF80
07FFFFFFC0
0FFFFFFFE0
1FFF00FFE0
1FFC003FF0
3FF0001FF0
3FE0000FF8
7FE00007F8
7FC00007F8
7F800003FC
FF800003FC
FF80001FFC
FF0000FFFC
FF0007FFFC
FF007FFFFC
FF03FFFFFC
FF3FFFFFF0
FFFFFFFF00
FFFFFFF800
FFFFFF8000
FFFFFC0000
FFFFC00000
FFFE000000
7FE0000000
7F80000000
7FC0000000
3FC0000000
3FE0000060
1FF00001E0
1FFC0007E0
0FFF007FE0
07FFFFFFE0
03FFFFFFE0
01FFFFFFE0
00FFFFFFC0
007FFFFF00
001FFFF800
0001FFC000
ENDCHAR
STARTCHAR icircumflex
ENCODING 238
SWIDTH 350 0
DWIDTH 28 0
BBX 23 57 5 0
BITMAP
007C00
00FE00
01FF00
03FF80
07FFC0
0FFFE0
1FEFF0
3FC7F8
7F83FC
FF01FE
FE00FE
000000
000000
000000
000000
000600
001E00
007E00
01FE00
01FE00
01FE00
01FE00
01FE00
01FE00
01FE00
01FE00
01FE00
01FE00
01FE00
01FE00
01FE00
01FE00
01FE00
01FE00
01FE00
01FE00
01FE00
01FE00
01FE00
01FE00
01FE00
01FE00
01FE00
01FE00
01FE00
01FE00
01FE00
01FE00
01FE00
01FE00
01FE00
01FE00
01FE00
01FE00
01FE00
01FE00
01FE00
ENDCHAR
STARTCHAR idieresis
ENCODING 239
SWIDTH 350 0
DWIDTH 28 0
BBX 25 56 4 0
BITMAP
3E003E00
7F007F00
FF80FF80
FF80FF80
FF80FF80
FF80FF80
7F007F00
3E003E00
00000000
00000000
00000000
00000000
00000000
00000000
00030000
000F0000
003F0000
00FF0000
00FF0000
00FF0000
00FF0000
00FF0000
00FF0000
00FF0000
00FF0000
00FF0000
00FF0000
00FF0000
00FF0000
00FF0000
00FF0000
00FF0000
00FF0000
00FF0000
00FF0000
00FF0000
00FF0000
00FF0000
00FF0000
00FF0000
00FF0000
00FF0000
00FF0000
00FF0000
00FF0000
00FF0000
00FF0000
00FF0000
00FF0000
00FF0000
00FF0000
00FF0000
00FF0000
00FF0000
00FF0000
00FF0000
ENDCHAR
STARTCHAR ocircumflex
ENCODING 244
SWIDTH 500 0
DWIDTH 40 0
BBX 39 58 8 -1
BITMAP
00007C0000
0000FE0000
0001FF0000
0003FF8000
0007FFC000
000FFFE000
001FEFF000
003FC7F800
007F83FC00
00FF01FE00
00FE00FE00
0000000000
0000000000
0000000000
0000000000
0000FE0000
000FFFE000
003FFFF800
00FFFFFE00
01FFFFFF00
03FFFFFF80
07FFFFFFC0
0FFFFFFFE0
1FFF01FFF0
1FFC007FF0
3FF0001FF8
3FE0000FF8
7FE0000FFC
7FC00007FC
7F800003FC
FF800003FE
FF800003FE
FF000001FE
FF000001FE
FF000001FE
FF000001FE
FF000001FE
FF000001FE
FF000001FE
FF000001FE
FF000001FE
FF800003FE
FF800003FE
7F800003FC
7FC00007FC
7FC00007FC
3FE0000FF8
3FE0000FF8
1FF0001FF0
1FFC007FF0
0FFF01FFE0
07FFFFFFC0
03FFFFFF80
01FFFFFF00
00FFFFFE00
007FFFFC00
001FFFF000
0001FF0000
ENDCHAR
STARTCHAR ugrave
ENCODING 249
SWIDTH 500 0
DWIDTH 40 0
BBX 32 57 8 -1
BITMAP
0FFC0000
07FC0000
03FE0000
01FE0000
00FF0000
007F0000
003F8000
001F8000
000FC000
0007C000
0003E000
0001E000
00000000
00000000
00000000
FF0000FF
FF0000FF
FF0000FF
FF0000FF
FF0000FF
FF0000FF
FF0000FF
FF0000FF
FF0000FF
FF0000FF
FF0000FF
FF0000FF
FF0000FF
FF0000FF
FF0000FF
FF0000FF
FF0000FF
FF0000FF
FF0000FF
FF0000FF
FF0000FF
FF0000FF
FF0000FF
FF0000FF
FF0000FF
FF0000FF
FF0000FF
FF0000FF
FF0000FF
FF0000FF
FF8001FF
FF8001FF
7FC007FF
7FF01FFF
7FFFFFFF
3FFFFFFF
3FFFFFFF
1FFFFFFF
0FFFFEFF
07FFF8FF
01FFE0FF
007F0000
ENDCHAR
STARTCHAR ucircumflex
ENCODING 251
SWIDTH 500 0
DWIDTH 40 0
BBX 32 58 8 -1
BITMAP
0003E000
0007F000
000FF800
001FFC00
003FFE00
007FFF00
00FF7F80
01FE3FC0
03FC1FE0
07F80FF0
07F007F0
00000000
00000000
00000000
00000000
00000000
FF0000FF
FF0000FF
FF0000FF
FF0000FF
FF0000FF
FF0000FF
FF0000FF
FF0000FF
FF0000FF
FF0000FF
FF0000FF
FF0000FF
FF0000FF
FF0000FF
FF0000FF
FF0000FF
FF0000FF
FF0000FF
FF0000FF
FF0000FF
FF0000FF
FF0000FF
FF0000FF
FF0000FF
FF0000FF
FF0000FF
FF0000FF
FF0000FF
FF0000FF
FF0000FF
FF8001FF
FF8001FF
7FC007FF
7FF01FFF
7FFFFFFF
3FFFFFFF
3FFFFFFF
1FFFFFFF
0FFFFEFF
07FFF8FF
01FFE0FF
007F0000
ENDCHAR
STARTCHAR udieresis
ENCODING 252
SWIDTH 500 0
DWIDTH 40 0
BBX 32 57 8 -1
BITMAP
07C007C0
0FE00FE0
1FF01FF0
1FF01FF0
1FF01FF0
1FF01FF0
0FE00FE0
07C007C0
00000000
00000000
00000000
00000000
00000000
00000000
00000000
FF0000FF
FF0000FF
FF0000FF
FF0000FF
FF0000FF
FF0000FF
FF0000FF
FF0000FF
FF0000FF
FF0000FF
FF0000FF
FF0000FF
FF0000FF
FF0000FF
FF0000FF
FF0000FF
FF0000FF
FF0000FF
FF0000FF
FF0000FF
FF0000FF
FF0000FF
FF0000FF
FF0000FF
FF0000FF
FF0000FF
FF0000FF
FF0000FF
FF0000FF
FF0000FF
FF8001FF
FF8001FF
7FC007FF
7FF01FFF
7FFFFFFF
3FFFFFFF
3FFFFFFF
1FFFFFFF
0FFFFEFF
07FFF8FF
01FFE0FF
007F0000
ENDCHAR
ENDFONT
